<svg width="21" height="19" viewBox="0 0 21 19" fill="none" xmlns="http://www.w3.org/2000/svg">
<path d="M20.3838 5.125V16.375C20.3838 16.8958 20.2015 17.3385 19.8369 17.7031C19.4723 18.0677 19.0296 18.25 18.5088 18.25H2.25879C1.73796 18.25 1.29525 18.0677 0.930664 17.7031C0.566081 17.3385 0.383789 16.8958 0.383789 16.375V5.125C0.383789 4.60417 0.566081 4.16146 0.930664 3.79688C1.29525 3.43229 1.73796 3.25 2.25879 3.25H5.69629L6.16504 1.96094C6.26921 1.72656 6.39941 1.51823 6.55566 1.33594C6.73796 1.15365 6.94629 1.01042 7.18066 0.90625C7.41504 0.802083 7.66243 0.75 7.92285 0.75H12.8447C13.2354 0.75 13.5869 0.867188 13.8994 1.10156C14.2119 1.3099 14.4463 1.59635 14.6025 1.96094L15.0713 3.25H18.5088C19.0296 3.25 19.4723 3.43229 19.8369 3.79688C20.2015 4.16146 20.3838 4.60417 20.3838 5.125ZM13.7041 14.0703C14.6156 13.1589 15.0713 12.0521 15.0713 10.75C15.0713 9.44792 14.6156 8.34115 13.7041 7.42969C12.7926 6.51823 11.6859 6.0625 10.3838 6.0625C9.08171 6.0625 7.97493 6.51823 7.06348 7.42969C6.15202 8.34115 5.69629 9.44792 5.69629 10.75C5.69629 12.0521 6.15202 13.1589 7.06348 14.0703C7.97493 14.9818 9.08171 15.4375 10.3838 15.4375C11.6859 15.4375 12.7926 14.9818 13.7041 14.0703ZM12.8057 8.32812C13.4827 9.00521 13.8213 9.8125 13.8213 10.75C13.8213 11.6875 13.4827 12.4948 12.8057 13.1719C12.1286 13.849 11.3213 14.1875 10.3838 14.1875C9.44629 14.1875 8.639 13.849 7.96191 13.1719C7.28483 12.4948 6.94629 11.6875 6.94629 10.75C6.94629 9.8125 7.28483 9.00521 7.96191 8.32812C8.639 7.65104 9.44629 7.3125 10.3838 7.3125C11.3213 7.3125 12.1286 7.65104 12.8057 8.32812Z" fill="white"/>
</svg>
