<svg width="64" height="51" viewBox="0 0 64 51" fill="none" xmlns="http://www.w3.org/2000/svg">
<path d="M61.9165 34.473C62.3722 34.473 62.7303 34.6357 62.9907 34.9612C63.3162 35.2217 63.479 35.5797 63.479 36.0355V39.1605C63.479 39.6162 63.3162 40.0068 62.9907 40.3323C62.7303 40.5928 62.3722 40.723 61.9165 40.723H57.229C57.229 43.3271 56.3175 45.5407 54.4946 47.3636C52.6717 49.1865 50.4582 50.098 47.854 50.098C45.2498 50.098 43.0363 49.1865 41.2134 47.3636C39.3905 45.5407 38.479 43.3271 38.479 40.723H25.979C25.979 43.3271 25.0675 45.5407 23.2446 47.3636C21.4217 49.1865 19.2082 50.098 16.604 50.098C13.9998 50.098 11.7863 49.1865 9.96338 47.3636C8.14046 45.5407 7.229 43.3271 7.229 40.723H5.6665C4.36442 40.723 3.25765 40.2672 2.34619 39.3558C1.43473 38.4443 0.979004 37.3375 0.979004 36.0355V4.78546C0.979004 3.48338 1.43473 2.37661 2.34619 1.46515C3.25765 0.553691 4.36442 0.0979614 5.6665 0.0979614H36.9165C38.2186 0.0979614 39.3254 0.553691 40.2368 1.46515C41.1483 2.37661 41.604 3.48338 41.604 4.78546V9.47296H45.9009C47.203 9.47296 48.3097 9.92869 49.2212 10.8401L58.9868 20.6058C59.8983 21.5172 60.354 22.624 60.354 23.9261V34.473H61.9165ZM13.2837 44.0433C14.1951 44.9547 15.3019 45.4105 16.604 45.4105C17.9061 45.4105 19.0129 44.9547 19.9243 44.0433C20.8358 43.1318 21.2915 42.025 21.2915 40.723C21.2915 39.4209 20.8358 38.3141 19.9243 37.4026C19.0129 36.4912 17.9061 36.0355 16.604 36.0355C15.3019 36.0355 14.1951 36.4912 13.2837 37.4026C12.3722 38.3141 11.9165 39.4209 11.9165 40.723C11.9165 42.025 12.3722 43.1318 13.2837 44.0433ZM44.5337 44.0433C45.4451 44.9547 46.5519 45.4105 47.854 45.4105C49.1561 45.4105 50.2629 44.9547 51.1743 44.0433C52.0858 43.1318 52.5415 42.025 52.5415 40.723C52.5415 39.4209 52.0858 38.3141 51.1743 37.4026C50.2629 36.4912 49.1561 36.0355 47.854 36.0355C46.5519 36.0355 45.4451 36.4912 44.5337 37.4026C43.6222 38.3141 43.1665 39.4209 43.1665 40.723C43.1665 42.025 43.6222 43.1318 44.5337 44.0433ZM55.6665 25.098V23.9261L45.9009 14.1605H41.604V25.098H55.6665Z" />
</svg>
