<svg width="51" height="38" viewBox="0 0 51 38" fill="none" xmlns="http://www.w3.org/2000/svg">
<path d="M49.1187 11.2654C49.5093 11.2654 49.8022 11.4282 49.9976 11.7537C50.258 12.0141 50.3556 12.3397 50.2905 12.7303L49.7046 15.074C49.5093 15.66 49.1187 15.9529 48.5327 15.9529H46.5796C48.0119 17.1899 48.728 18.7524 48.728 20.6404V25.3279C48.728 26.8904 48.2072 28.2576 47.1655 29.4295V34.7029C47.1655 35.5493 46.84 36.298 46.189 36.949C45.603 37.535 44.8869 37.8279 44.0405 37.8279H40.9155C40.0692 37.8279 39.3205 37.535 38.6694 36.949C38.0835 36.298 37.7905 35.5493 37.7905 34.7029V31.5779H12.7905V34.7029C12.7905 35.5493 12.465 36.298 11.814 36.949C11.228 37.535 10.5119 37.8279 9.66553 37.8279H6.54053C5.69417 37.8279 4.94548 37.535 4.29443 36.949C3.7085 36.298 3.41553 35.5493 3.41553 34.7029V29.4295C2.37386 28.2576 1.85303 26.8904 1.85303 25.3279V20.6404C1.85303 18.7524 2.56917 17.1899 4.00146 15.9529H2.04834C1.4624 15.9529 1.07178 15.66 0.876465 15.074L0.290527 12.7303C0.225423 12.3397 0.290527 12.0141 0.48584 11.7537C0.746257 11.4282 1.07178 11.2654 1.4624 11.2654H7.32178L8.98193 7.16388C9.37256 6.18732 9.89339 5.27586 10.5444 4.4295C11.2606 3.51805 12.0418 2.76935 12.8882 2.18341C13.7996 1.59747 14.7762 1.14174 15.8179 0.816223C16.8595 0.490702 17.9338 0.327942 19.0405 0.327942H31.5405C33.7541 0.327942 35.7723 0.946431 37.5952 2.18341C39.4832 3.42039 40.8179 5.08055 41.5991 7.16388L43.2593 11.2654H49.1187ZM14.7437 9.50763L12.7905 14.3904H37.7905L35.8374 9.50763C35.5119 8.66128 34.9259 7.97768 34.0796 7.45685C33.2983 6.87091 32.452 6.57794 31.5405 6.57794H19.0405C18.1291 6.57794 17.2502 6.87091 16.4038 7.45685C15.6226 7.97768 15.0692 8.66128 14.7437 9.50763ZM9.66553 25.3279C9.79574 25.3279 10.0562 25.3279 10.4468 25.3279C10.9025 25.3279 11.228 25.3279 11.4233 25.3279C11.6187 25.3279 11.8791 25.3279 12.2046 25.3279C12.5952 25.2628 12.8882 25.1977 13.0835 25.1326C13.2788 25.0675 13.4741 25.0024 13.6694 24.9373C13.9299 24.8071 14.0926 24.6443 14.1577 24.449C14.2879 24.2537 14.353 24.0259 14.353 23.7654C14.353 22.7889 13.7996 21.7798 12.6929 20.7381C11.5861 19.6313 10.577 19.0779 9.66553 19.0779C8.75407 19.0779 8.00537 19.3709 7.41943 19.9568C6.8335 20.5428 6.54053 21.2915 6.54053 22.2029C6.54053 23.1144 6.8335 23.8631 7.41943 24.449C8.00537 25.035 8.75407 25.3279 9.66553 25.3279ZM40.9155 25.3279C41.827 25.3279 42.5757 25.035 43.1616 24.449C43.7476 23.8631 44.0405 23.1144 44.0405 22.2029C44.0405 21.2915 43.7476 20.5428 43.1616 19.9568C42.5757 19.3709 41.827 19.0779 40.9155 19.0779C40.3296 19.0779 39.646 19.3384 38.8647 19.8592C38.1486 20.38 37.5301 21.0311 37.0093 21.8123C36.4884 22.5285 36.228 23.1795 36.228 23.7654C36.228 24.0259 36.2606 24.2537 36.3257 24.449C36.4559 24.6443 36.6187 24.8071 36.814 24.9373C37.0744 25.0024 37.3022 25.0675 37.4976 25.1326C37.6929 25.1977 37.9533 25.2628 38.2788 25.3279C38.6694 25.3279 38.9624 25.3279 39.1577 25.3279C39.353 25.3279 39.646 25.3279 40.0366 25.3279C40.4924 25.3279 40.7853 25.3279 40.9155 25.3279Z" />
</svg>
