<svg width="18" height="18" viewBox="0 0 18 18" fill="none" xmlns="http://www.w3.org/2000/svg">
<path d="M2.53125 3.09766C4.24219 1.38672 6.30469 0.53125 8.71875 0.53125C11.1328 0.53125 13.1836 1.38672 14.8711 3.09766C16.582 4.78516 17.4375 6.83594 17.4375 9.25C17.4375 11.6641 16.582 13.7266 14.8711 15.4375C13.1836 17.125 11.1328 17.9688 8.71875 17.9688C6.30469 17.9688 4.24219 17.125 2.53125 15.4375C0.84375 13.7266 0 11.6641 0 9.25C0 6.83594 0.84375 4.78516 2.53125 3.09766ZM10.8984 4.82031C10.2891 4.21094 9.5625 3.90625 8.71875 3.90625C7.875 3.90625 7.14844 4.21094 6.53906 4.82031C5.92969 5.42969 5.625 6.15625 5.625 7C5.625 7.84375 5.92969 8.57031 6.53906 9.17969C7.14844 9.78906 7.875 10.0938 8.71875 10.0938C9.5625 10.0938 10.2891 9.78906 10.8984 9.17969C11.5078 8.57031 11.8125 7.84375 11.8125 7C11.8125 6.15625 11.5078 5.42969 10.8984 4.82031ZM3.58594 13.6094C4.92188 15.2031 6.63281 16 8.71875 16C10.8047 16 12.5156 15.2031 13.8516 13.6094C13.5234 12.9766 13.0547 12.4727 12.4453 12.0977C11.8359 11.6992 11.1562 11.5 10.4062 11.5C10.3359 11.5 10.2539 11.5117 10.1602 11.5352C9.66797 11.6992 9.1875 11.7812 8.71875 11.7812C8.25 11.7812 7.76953 11.6992 7.27734 11.5352C7.18359 11.5117 7.10156 11.5 7.03125 11.5C6.28125 11.5 5.60156 11.6992 4.99219 12.0977C4.38281 12.4727 3.91406 12.9766 3.58594 13.6094Z" fill="white"/>
</svg>
