<svg width="14" height="16" viewBox="0 0 14 16" fill="none" xmlns="http://www.w3.org/2000/svg">
<path d="M1 14.5V4H13V14.5C13 14.9167 12.8542 15.2708 12.5625 15.5625C12.2708 15.8542 11.9167 16 11.5 16H2.5C2.08333 16 1.72917 15.8542 1.4375 15.5625C1.14583 15.2708 1 14.9167 1 14.5ZM9.5 6.5V13.5C9.5 13.6458 9.54167 13.7708 9.625 13.875C9.72917 13.9583 9.85417 14 10 14C10.1458 14 10.2604 13.9583 10.3438 13.875C10.4479 13.7708 10.5 13.6458 10.5 13.5V6.5C10.5 6.35417 10.4479 6.23958 10.3438 6.15625C10.2604 6.05208 10.1458 6 10 6C9.85417 6 9.72917 6.05208 9.625 6.15625C9.54167 6.23958 9.5 6.35417 9.5 6.5ZM6.5 6.5V13.5C6.5 13.6458 6.54167 13.7708 6.625 13.875C6.72917 13.9583 6.85417 14 7 14C7.14583 14 7.26042 13.9583 7.34375 13.875C7.44792 13.7708 7.5 13.6458 7.5 13.5V6.5C7.5 6.35417 7.44792 6.23958 7.34375 6.15625C7.26042 6.05208 7.14583 6 7 6C6.85417 6 6.72917 6.05208 6.625 6.15625C6.54167 6.23958 6.5 6.35417 6.5 6.5ZM3.5 6.5V13.5C3.5 13.6458 3.54167 13.7708 3.625 13.875C3.72917 13.9583 3.85417 14 4 14C4.14583 14 4.26042 13.9583 4.34375 13.875C4.44792 13.7708 4.5 13.6458 4.5 13.5V6.5C4.5 6.35417 4.44792 6.23958 4.34375 6.15625C4.26042 6.05208 4.14583 6 4 6C3.85417 6 3.72917 6.05208 3.625 6.15625C3.54167 6.23958 3.5 6.35417 3.5 6.5ZM13.5 1C13.6458 1 13.7604 1.05208 13.8438 1.15625C13.9479 1.23958 14 1.35417 14 1.5V2.5C14 2.64583 13.9479 2.77083 13.8438 2.875C13.7604 2.95833 13.6458 3 13.5 3H0.5C0.354167 3 0.229167 2.95833 0.125 2.875C0.0416667 2.77083 0 2.64583 0 2.5V1.5C0 1.35417 0.0416667 1.23958 0.125 1.15625C0.229167 1.05208 0.354167 1 0.5 1H4.25L4.53125 0.40625C4.67708 0.135417 4.90625 0 5.21875 0H8.78125C9.09375 0 9.32292 0.135417 9.46875 0.40625L9.75 1H13.5Z" />
</svg>
