<svg width="24" height="15" viewBox="0 0 24 15" fill="none" xmlns="http://www.w3.org/2000/svg">
<path d="M23.2812 6.95312C21.1719 2.8125 16.9531 0 12.1875 0C7.38281 0 3.16406 2.8125 1.05469 6.95312C0.976562 7.10938 0.9375 7.30469 0.9375 7.5C0.9375 7.73438 0.976562 7.92969 1.05469 8.08594C3.16406 12.2266 7.38281 15 12.1875 15C16.9531 15 21.1719 12.2266 23.2812 8.08594C23.3594 7.92969 23.3984 7.73438 23.3984 7.53906C23.3984 7.30469 23.3594 7.10938 23.2812 6.95312ZM12.1875 13.125C9.0625 13.125 6.5625 10.625 6.5625 7.5C6.5625 4.41406 9.0625 1.875 12.1875 1.875C15.2734 1.875 17.8125 4.41406 17.8125 7.5V7.53906C17.8125 10.625 15.2734 13.1641 12.1875 13.1641V13.125ZM12.1875 3.75C11.8359 3.78906 11.4844 3.82812 11.1719 3.90625C11.4062 4.21875 11.5234 4.60938 11.5234 5.03906C11.5234 6.05469 10.7031 6.875 9.6875 6.875C9.25781 6.875 8.86719 6.75781 8.55469 6.52344C8.47656 6.83594 8.4375 7.1875 8.4375 7.5C8.4375 9.57031 10.1172 11.25 12.1875 11.25C14.2578 11.25 15.9375 9.57031 15.9375 7.5C15.9375 5.42969 14.2578 3.78906 12.1875 3.78906V3.75Z" fill="#3EC5CC"/>
</svg>
