<svg width="726" height="86" xmlns="http://www.w3.org/2000/svg" fill="none">

 <g>
  <title>Layer 1</title>
  <ellipse id="svg_1" fill="#3EC5CC" ry="23.0556" rx="26.4241" cy="24.0556" cx="73.3386"/>
  <path id="svg_2" fill="white" d="m69.9011,29.7546c0.3906,0.3906 1.0547,0.3906 1.4453,0l11.4844,-11.4844c0.3906,-0.3906 0.3906,-1.0547 0,-1.4453l-1.4062,-1.4062c-0.3907,-0.3907 -1.0157,-0.3907 -1.4063,0l-9.375,9.375l-4.4141,-4.375c-0.3906,-0.3907 -1.0156,-0.3907 -1.4062,0l-1.4063,1.4062c-0.3906,0.3906 -0.3906,1.0547 0,1.4453l6.4844,6.4844z"/>
  <line stroke="#3EC5CC" id="svg_3" y2="23.19232" x2="696.00473" y1="23.19232" x1="251.68516"/>
  <ellipse id="svg_4" fill="#3EC5CC" ry="23.0556" rx="27.3201" cy="24.0556" cx="224.544"/>
  <path id="svg_5" fill="white" d="m220.76,29.7546c0.391,0.3906 1.055,0.3906 1.445,0l11.485,-11.4844c0.39,-0.3906 0.39,-1.0547 0,-1.4453l-1.407,-1.4062c-0.39,-0.3907 -1.015,-0.3907 -1.406,0l-9.375,9.375l-4.414,-4.375c-0.39,-0.3907 -1.015,-0.3907 -1.406,0l-1.406,1.4062c-0.391,0.3906 -0.391,1.0547 0,1.4453l6.484,6.4844z"/>
  <line stroke="#C4C4C4" id="svg_6" y2="103.41927" x2="239.54385" y1="103.41927" x1="141.54385"/>
  <ellipse id="svg_7" fill="#3EC5CC" ry="23.0556" rx="27.3201" cy="23.0556" cx="380.544"/>
  <path id="svg_8" fill="white" d="m376.76,28.7546c0.391,0.3906 1.055,0.3906 1.445,0l11.485,-11.4844c0.39,-0.3906 0.39,-1.0547 0,-1.4453l-1.407,-1.4062c-0.39,-0.3907 -1.015,-0.3907 -1.406,0l-9.375,9.375l-4.414,-4.375c-0.39,-0.3907 -1.015,-0.3907 -1.406,0l-1.406,1.4062c-0.391,0.3906 -0.391,1.0547 0,1.4453l6.484,6.4844z"/>
  <line fill="#3EC5CC" id="svg_9" y2="22.5" x2="505" y1="22.5" x1="407"/>
  <ellipse id="svg_10" fill="#3EC5CC" ry="23.0556" rx="27.3201" cy="23.0556" cx="531.544"/>
  <path id="svg_11" fill="white" d="m527.76,28.7546c0.391,0.3906 1.055,0.3906 1.445,0l11.485,-11.4844c0.39,-0.3906 0.39,-1.0547 0,-1.4453l-1.407,-1.4062c-0.39,-0.3907 -1.015,-0.3907 -1.406,0l-9.375,9.375l-4.414,-4.375c-0.39,-0.3907 -1.015,-0.3907 -1.406,0l-1.406,1.4062c-0.391,0.3906 -0.391,1.0547 0,1.4453l6.484,6.4844z"/>
  <ellipse id="svg_13" fill="#3EC5CC" ry="23.0556" rx="27.3201" cy="25.0556" cx="672.544"/>
  <path id="svg_14" fill="white" d="m668.76,30.7546c0.391,0.3906 1.055,0.3906 1.445,0l11.485,-11.4844c0.39,-0.3906 0.39,-1.0547 0,-1.4453l-1.407,-1.4062c-0.39,-0.3907 -1.015,-0.3907 -1.406,0l-9.375,9.375l-4.414,-4.375c-0.39,-0.3907 -1.015,-0.3907 -1.406,0l-1.406,1.4062c-0.391,0.3906 -0.391,1.0547 0,1.4453l6.484,6.4844z"/>
  <path id="svg_15" fill="#3EC5CC" d="m168.32,72l0,-11.375l3.211,0c0.99,0 1.865,0.2188 2.625,0.6562c0.761,0.4376 1.347,1.0599 1.758,1.8672c0.417,0.8073 0.628,1.7344 0.633,2.7813l0,0.7265c0,1.073 -0.208,2.0131 -0.625,2.8204c-0.412,0.8073 -1.003,1.427 -1.774,1.8593c-0.765,0.4323 -1.658,0.6537 -2.679,0.6641l-3.149,0zm1.5,-10.1406l0,8.914l1.578,0c1.157,0 2.055,-0.3593 2.696,-1.0781c0.646,-0.7187 0.968,-1.7422 0.968,-3.0703l0,-0.6641c0,-1.2916 -0.304,-2.2942 -0.914,-3.0078c-0.604,-0.7187 -1.463,-1.0833 -2.578,-1.0937l-1.75,0zm13.992,10.1406c-0.083,-0.1667 -0.151,-0.4635 -0.203,-0.8906c-0.671,0.6979 -1.474,1.0468 -2.406,1.0468c-0.833,0 -1.518,-0.2343 -2.055,-0.7031c-0.531,-0.4739 -0.796,-1.0729 -0.796,-1.7969c0,-0.8802 0.333,-1.5624 1,-2.0468c0.671,-0.4896 1.614,-0.7344 2.828,-0.7344l1.406,0l0,-0.6641c0,-0.5052 -0.151,-0.9062 -0.453,-1.2031c-0.302,-0.3021 -0.748,-0.4531 -1.336,-0.4531c-0.516,0 -0.948,0.1302 -1.297,0.3906c-0.349,0.2604 -0.523,0.5755 -0.523,0.9453l-1.454,0c0,-0.4218 0.149,-0.8281 0.446,-1.2187c0.302,-0.3959 0.708,-0.7084 1.219,-0.9375c0.515,-0.2292 1.08,-0.3438 1.695,-0.3438c0.974,0 1.737,0.2448 2.289,0.7344c0.552,0.4844 0.838,1.1536 0.859,2.0078l0,3.8906c0,0.7761 0.099,1.3933 0.297,1.8516l0,0.125l-1.516,0zm-2.398,-1.1016c0.453,0 0.883,-0.1172 1.289,-0.3515c0.406,-0.2344 0.701,-0.5391 0.883,-0.9141l0,-1.7344l-1.133,0c-1.771,0 -2.656,0.5183 -2.656,1.5547c0,0.4531 0.151,0.8073 0.453,1.0625c0.302,0.2552 0.69,0.3828 1.164,0.3828zm5.531,-3.1953c0,-1.2969 0.308,-2.3385 0.922,-3.125c0.615,-0.7916 1.419,-1.1875 2.414,-1.1875c0.99,0 1.774,0.3386 2.352,1.0156l0,-4.4062l1.445,0l0,12l-1.328,0l-0.07,-0.9062c-0.578,0.7083 -1.383,1.0624 -2.414,1.0624c-0.98,0 -1.779,-0.401 -2.399,-1.2031c-0.614,-0.8021 -0.922,-1.8489 -0.922,-3.1406l0,-0.1094zm1.446,0.1641c0,0.9583 0.198,1.7083 0.593,2.25c0.396,0.5417 0.943,0.8125 1.641,0.8125c0.917,0 1.586,-0.4115 2.008,-1.2344l0,-3.8828c-0.432,-0.7969 -1.097,-1.1953 -1.992,-1.1953c-0.709,0 -1.261,0.2734 -1.657,0.8203c-0.395,0.5469 -0.593,1.3568 -0.593,2.4297zm7.554,-0.1719c0,-0.8281 0.162,-1.5729 0.485,-2.2344c0.328,-0.6614 0.781,-1.1718 1.359,-1.5312c0.583,-0.3594 1.247,-0.5391 1.992,-0.5391c1.151,0 2.081,0.3985 2.789,1.1953c0.714,0.7969 1.071,1.8568 1.071,3.1797l0,0.1016c0,0.8229 -0.159,1.5625 -0.477,2.2187c-0.312,0.6511 -0.763,1.1589 -1.352,1.5235c-0.583,0.3646 -1.255,0.5468 -2.015,0.5468c-1.146,0 -2.076,-0.3984 -2.789,-1.1953c-0.709,-0.7968 -1.063,-1.8515 -1.063,-3.164l0,-0.1016zm1.453,0.1719c0,0.9375 0.217,1.6901 0.649,2.2578c0.437,0.5677 1.021,0.8516 1.75,0.8516c0.734,0 1.318,-0.2865 1.75,-0.8594c0.432,-0.5781 0.648,-1.3854 0.648,-2.4219c0,-0.9271 -0.221,-1.6771 -0.664,-2.25c-0.437,-0.5781 -1.021,-0.8672 -1.75,-0.8672c-0.713,0 -1.289,0.2839 -1.726,0.8516c-0.438,0.5677 -0.657,1.3802 -0.657,2.4375zm12.977,1.8906c0,-0.3906 -0.148,-0.6927 -0.445,-0.9062c-0.292,-0.2188 -0.805,-0.4063 -1.539,-0.5625c-0.73,-0.1563 -1.31,-0.3438 -1.743,-0.5625c-0.427,-0.2188 -0.744,-0.4792 -0.953,-0.7813c-0.203,-0.3021 -0.304,-0.6614 -0.304,-1.0781c0,-0.6927 0.291,-1.2787 0.875,-1.7578c0.588,-0.4792 1.338,-0.7188 2.25,-0.7188c0.958,0 1.734,0.2474 2.328,0.7422c0.599,0.4948 0.898,1.1276 0.898,1.8984l-1.453,0c0,-0.3958 -0.169,-0.7369 -0.508,-1.0234c-0.333,-0.2864 -0.755,-0.4297 -1.265,-0.4297c-0.526,0 -0.938,0.1146 -1.235,0.3438c-0.297,0.2291 -0.445,0.5286 -0.445,0.8984c0,0.349 0.138,0.612 0.414,0.7891c0.276,0.1771 0.773,0.3463 1.492,0.5078c0.724,0.1614 1.31,0.3542 1.758,0.5781c0.448,0.224 0.779,0.4948 0.992,0.8125c0.219,0.3125 0.328,0.6953 0.328,1.1484c0,0.7553 -0.302,1.362 -0.906,1.8204c-0.604,0.4531 -1.388,0.6796 -2.352,0.6796c-0.677,0 -1.276,-0.1197 -1.796,-0.3593c-0.521,-0.2396 -0.93,-0.5729 -1.227,-1c-0.292,-0.4323 -0.437,-0.8985 -0.437,-1.3985l1.445,0c0.026,0.4844 0.219,0.8698 0.578,1.1563c0.365,0.2812 0.844,0.4219 1.437,0.4219c0.547,0 0.985,-0.1094 1.313,-0.3282c0.333,-0.2239 0.5,-0.5208 0.5,-0.8906zm6.945,-2.0547c0,-1.2969 0.308,-2.3385 0.922,-3.125c0.615,-0.7916 1.419,-1.1875 2.414,-1.1875c0.99,0 1.774,0.3386 2.352,1.0156l0,-4.4062l1.445,0l0,12l-1.328,0l-0.07,-0.9062c-0.578,0.7083 -1.383,1.0624 -2.414,1.0624c-0.98,0 -1.779,-0.401 -2.399,-1.2031c-0.614,-0.8021 -0.922,-1.8489 -0.922,-3.1406l0,-0.1094zm1.446,0.1641c0,0.9583 0.198,1.7083 0.593,2.25c0.396,0.5417 0.943,0.8125 1.641,0.8125c0.917,0 1.586,-0.4115 2.008,-1.2344l0,-3.8828c-0.432,-0.7969 -1.097,-1.1953 -1.992,-1.1953c-0.709,0 -1.261,0.2734 -1.657,0.8203c-0.395,0.5469 -0.593,1.3568 -0.593,2.4297zm7.554,-0.1719c0,-0.8281 0.162,-1.5729 0.485,-2.2344c0.328,-0.6614 0.781,-1.1718 1.359,-1.5312c0.583,-0.3594 1.247,-0.5391 1.992,-0.5391c1.151,0 2.081,0.3985 2.789,1.1953c0.714,0.7969 1.071,1.8568 1.071,3.1797l0,0.1016c0,0.8229 -0.159,1.5625 -0.477,2.2187c-0.312,0.6511 -0.763,1.1589 -1.351,1.5235c-0.584,0.3646 -1.256,0.5468 -2.016,0.5468c-1.146,0 -2.076,-0.3984 -2.789,-1.1953c-0.709,-0.7968 -1.063,-1.8515 -1.063,-3.164l0,-0.1016zm1.453,0.1719c0,0.9375 0.217,1.6901 0.649,2.2578c0.437,0.5677 1.021,0.8516 1.75,0.8516c0.734,0 1.318,-0.2865 1.75,-0.8594c0.432,-0.5781 0.648,-1.3854 0.648,-2.4219c0,-0.9271 -0.221,-1.6771 -0.664,-2.25c-0.437,-0.5781 -1.021,-0.8672 -1.75,-0.8672c-0.713,0 -1.289,0.2839 -1.726,0.8516c-0.438,0.5677 -0.657,1.3802 -0.657,2.4375zm12.25,4.1328l0,-11.375l3.719,0c1.235,0 2.162,0.2552 2.781,0.7656c0.625,0.5104 0.938,1.2656 0.938,2.2656c0,0.5313 -0.151,1.0027 -0.453,1.4141c-0.302,0.4063 -0.714,0.7214 -1.235,0.9453c0.615,0.1719 1.099,0.5 1.454,0.9844c0.359,0.4792 0.539,1.0521 0.539,1.7188c0,1.0208 -0.331,1.8229 -0.993,2.4062c-0.661,0.5833 -1.596,0.875 -2.804,0.875l-3.946,0zm1.5,-5.3203l0,4.0937l2.477,0c0.698,0 1.247,-0.1796 1.648,-0.539c0.407,-0.3646 0.61,-0.8646 0.61,-1.5c0,-1.3698 -0.745,-2.0547 -2.235,-2.0547l-2.5,0zm0,-1.2031l2.266,0c0.656,0 1.18,-0.1641 1.57,-0.4922c0.396,-0.3282 0.594,-0.7735 0.594,-1.336c0,-0.625 -0.182,-1.0781 -0.547,-1.3593c-0.364,-0.2865 -0.919,-0.4297 -1.664,-0.4297l-2.219,0l0,3.6172zm13.461,6.5234c-0.083,-0.1667 -0.151,-0.4635 -0.203,-0.8906c-0.672,0.6979 -1.474,1.0468 -2.406,1.0468c-0.833,0 -1.518,-0.2343 -2.055,-0.7031c-0.531,-0.4739 -0.797,-1.0729 -0.797,-1.7969c0,-0.8802 0.334,-1.5624 1,-2.0468c0.672,-0.4896 1.615,-0.7344 2.829,-0.7344l1.406,0l0,-0.6641c0,-0.5052 -0.151,-0.9062 -0.453,-1.2031c-0.302,-0.3021 -0.748,-0.4531 -1.336,-0.4531c-0.516,0 -0.948,0.1302 -1.297,0.3906c-0.349,0.2604 -0.524,0.5755 -0.524,0.9453l-1.453,0c0,-0.4218 0.149,-0.8281 0.446,-1.2187c0.302,-0.3959 0.708,-0.7084 1.218,-0.9375c0.516,-0.2292 1.081,-0.3438 1.696,-0.3438c0.974,0 1.737,0.2448 2.289,0.7344c0.552,0.4844 0.838,1.1536 0.859,2.0078l0,3.8906c0,0.7761 0.099,1.3933 0.297,1.8516l0,0.125l-1.516,0zm-2.398,-1.1016c0.453,0 0.883,-0.1172 1.289,-0.3515c0.406,-0.2344 0.701,-0.5391 0.883,-0.9141l0,-1.7344l-1.133,0c-1.771,0 -2.656,0.5183 -2.656,1.5547c0,0.4531 0.151,0.8073 0.453,1.0625c0.302,0.2552 0.69,0.3828 1.164,0.3828zm1.336,-10.8984l1.75,0l-2.094,2.2969l-1.164,0l1.508,-2.2969zm9.469,9.7578c0,-0.3906 -0.149,-0.6927 -0.446,-0.9062c-0.291,-0.2188 -0.804,-0.4063 -1.539,-0.5625c-0.729,-0.1563 -1.31,-0.3438 -1.742,-0.5625c-0.427,-0.2188 -0.745,-0.4792 -0.953,-0.7813c-0.203,-0.3021 -0.305,-0.6614 -0.305,-1.0781c0,-0.6927 0.292,-1.2787 0.875,-1.7578c0.589,-0.4792 1.339,-0.7188 2.25,-0.7188c0.959,0 1.735,0.2474 2.328,0.7422c0.599,0.4948 0.899,1.1276 0.899,1.8984l-1.453,0c0,-0.3958 -0.17,-0.7369 -0.508,-1.0234c-0.333,-0.2864 -0.755,-0.4297 -1.266,-0.4297c-0.526,0 -0.937,0.1146 -1.234,0.3438c-0.297,0.2291 -0.445,0.5286 -0.445,0.8984c0,0.349 0.138,0.612 0.414,0.7891c0.276,0.1771 0.773,0.3463 1.492,0.5078c0.724,0.1614 1.31,0.3542 1.758,0.5781c0.448,0.224 0.778,0.4948 0.992,0.8125c0.219,0.3125 0.328,0.6953 0.328,1.1484c0,0.7553 -0.302,1.362 -0.906,1.8204c-0.604,0.4531 -1.388,0.6796 -2.352,0.6796c-0.677,0 -1.276,-0.1197 -1.797,-0.3593c-0.521,-0.2396 -0.929,-0.5729 -1.226,-1c-0.292,-0.4323 -0.438,-0.8985 -0.438,-1.3985l1.445,0c0.027,0.4844 0.219,0.8698 0.579,1.1563c0.364,0.2812 0.843,0.4219 1.437,0.4219c0.547,0 0.984,-0.1094 1.313,-0.3282c0.333,-0.2239 0.5,-0.5208 0.5,-0.8906zm4.898,2.2422l-1.445,0l0,-8.4531l1.445,0l0,8.4531zm-1.562,-10.6953c0,-0.2344 0.07,-0.4323 0.211,-0.5938c0.145,-0.1614 0.359,-0.2421 0.64,-0.2421c0.281,0 0.495,0.0807 0.641,0.2421c0.146,0.1615 0.219,0.3594 0.219,0.5938c0,0.2344 -0.073,0.4297 -0.219,0.5859c-0.146,0.1563 -0.36,0.2344 -0.641,0.2344c-0.281,0 -0.495,-0.0781 -0.64,-0.2344c-0.141,-0.1562 -0.211,-0.3515 -0.211,-0.5859zm7.273,9.6719c0.516,0 0.966,-0.1563 1.352,-0.4688c0.385,-0.3125 0.599,-0.7031 0.64,-1.1719l1.367,0c-0.026,0.4844 -0.192,0.9453 -0.5,1.3829c-0.307,0.4374 -0.718,0.7864 -1.234,1.0468c-0.51,0.2604 -1.052,0.3906 -1.625,0.3906c-1.151,0 -2.068,-0.3828 -2.75,-1.1484c-0.677,-0.7708 -1.016,-1.8229 -1.016,-3.1562l0,-0.2422c0,-0.8229 0.151,-1.5547 0.454,-2.1953c0.302,-0.6407 0.734,-1.1381 1.296,-1.4922c0.568,-0.3542 1.237,-0.5313 2.008,-0.5313c0.948,0 1.735,0.2839 2.36,0.8516c0.63,0.5677 0.966,1.3047 1.007,2.2109l-1.367,0c-0.041,-0.5469 -0.25,-0.9948 -0.625,-1.3437c-0.37,-0.3542 -0.828,-0.5313 -1.375,-0.5313c-0.734,0 -1.304,0.2657 -1.711,0.7969c-0.401,0.526 -0.601,1.2891 -0.601,2.2891l0,0.2734c0,0.974 0.2,1.724 0.601,2.25c0.401,0.526 0.974,0.7891 1.719,0.7891zm4.602,-3.2813c0,-0.8281 0.161,-1.5729 0.484,-2.2344c0.328,-0.6614 0.781,-1.1718 1.359,-1.5312c0.584,-0.3594 1.248,-0.5391 1.993,-0.5391c1.151,0 2.08,0.3985 2.789,1.1953c0.713,0.7969 1.07,1.8568 1.07,3.1797l0,0.1016c0,0.8229 -0.159,1.5625 -0.477,2.2187c-0.312,0.6511 -0.763,1.1589 -1.351,1.5235c-0.584,0.3646 -1.255,0.5468 -2.016,0.5468c-1.146,0 -2.075,-0.3984 -2.789,-1.1953c-0.708,-0.7968 -1.062,-1.8515 -1.062,-3.164l0,-0.1016zm1.453,0.1719c0,0.9375 0.216,1.6901 0.648,2.2578c0.438,0.5677 1.021,0.8516 1.75,0.8516c0.735,0 1.318,-0.2865 1.75,-0.8594c0.432,-0.5781 0.649,-1.3854 0.649,-2.4219c0,-0.9271 -0.222,-1.6771 -0.664,-2.25c-0.438,-0.5781 -1.021,-0.8672 -1.75,-0.8672c-0.714,0 -1.29,0.2839 -1.727,0.8516c-0.438,0.5677 -0.656,1.3802 -0.656,2.4375zm12.976,1.8906c0,-0.3906 -0.148,-0.6927 -0.445,-0.9062c-0.292,-0.2188 -0.805,-0.4063 -1.539,-0.5625c-0.729,-0.1563 -1.31,-0.3438 -1.742,-0.5625c-0.427,-0.2188 -0.745,-0.4792 -0.953,-0.7813c-0.204,-0.3021 -0.305,-0.6614 -0.305,-1.0781c0,-0.6927 0.292,-1.2787 0.875,-1.7578c0.588,-0.4792 1.338,-0.7188 2.25,-0.7188c0.958,0 1.734,0.2474 2.328,0.7422c0.599,0.4948 0.898,1.1276 0.898,1.8984l-1.453,0c0,-0.3958 -0.169,-0.7369 -0.507,-1.0234c-0.334,-0.2864 -0.756,-0.4297 -1.266,-0.4297c-0.526,0 -0.938,0.1146 -1.234,0.3438c-0.297,0.2291 -0.446,0.5286 -0.446,0.8984c0,0.349 0.138,0.612 0.414,0.7891c0.276,0.1771 0.774,0.3463 1.492,0.5078c0.724,0.1614 1.31,0.3542 1.758,0.5781c0.448,0.224 0.779,0.4948 0.992,0.8125c0.219,0.3125 0.329,0.6953 0.329,1.1484c0,0.7553 -0.303,1.362 -0.907,1.8204c-0.604,0.4531 -1.388,0.6796 -2.351,0.6796c-0.677,0 -1.276,-0.1197 -1.797,-0.3593c-0.521,-0.2396 -0.93,-0.5729 -1.227,-1c-0.291,-0.4323 -0.437,-0.8985 -0.437,-1.3985l1.445,0c0.026,0.4844 0.219,0.8698 0.578,1.1563c0.365,0.2812 0.844,0.4219 1.438,0.4219c0.547,0 0.984,-0.1094 1.312,-0.3282c0.334,-0.2239 0.5,-0.5208 0.5,-0.8906z"/>
  <path id="svg_16" fill="#3EC5CC" d="m367.82,68.5469l0,4.4531l-1.5,0l0,-11.375l4.196,0c1.244,0 2.218,0.3177 2.922,0.9531c0.708,0.6354 1.062,1.4766 1.062,2.5235c0,1.1041 -0.346,1.9557 -1.039,2.5546c-0.688,0.5938 -1.675,0.8907 -2.961,0.8907l-2.68,0zm0,-1.2266l2.696,0c0.802,0 1.416,-0.1875 1.843,-0.5625c0.427,-0.3802 0.641,-0.9271 0.641,-1.6406c0,-0.6771 -0.214,-1.2188 -0.641,-1.625c-0.427,-0.4063 -1.013,-0.6172 -1.757,-0.6328l-2.782,0l0,4.4609zm11.766,5.8359c-1.146,0 -2.078,-0.375 -2.797,-1.125c-0.719,-0.7552 -1.078,-1.763 -1.078,-3.0234l0,-0.2656c0,-0.8386 0.159,-1.586 0.477,-2.2422c0.322,-0.6615 0.77,-1.1771 1.343,-1.5469c0.578,-0.375 1.203,-0.5625 1.875,-0.5625c1.099,0 1.953,0.362 2.563,1.086c0.609,0.7239 0.914,1.7604 0.914,3.1093l0,0.6016l-5.727,0c0.021,0.8333 0.263,1.5078 0.727,2.0234c0.469,0.5105 1.062,0.7657 1.781,0.7657c0.51,0 0.943,-0.1042 1.297,-0.3125c0.354,-0.2084 0.664,-0.4844 0.93,-0.8282l0.882,0.6875c-0.708,1.0886 -1.77,1.6328 -3.187,1.6328zm-0.18,-7.5781c-0.583,0 -1.073,0.2136 -1.468,0.6407c-0.396,0.4218 -0.641,1.0156 -0.735,1.7812l4.235,0l0,-0.1094c-0.042,-0.7344 -0.24,-1.3021 -0.594,-1.7031c-0.354,-0.4063 -0.834,-0.6094 -1.438,-0.6094zm8.547,6.3985c0.516,0 0.966,-0.1563 1.352,-0.4688c0.385,-0.3125 0.599,-0.7031 0.64,-1.1719l1.367,0c-0.026,0.4844 -0.192,0.9453 -0.5,1.3829c-0.307,0.4374 -0.718,0.7864 -1.234,1.0468c-0.51,0.2604 -1.052,0.3906 -1.625,0.3906c-1.151,0 -2.068,-0.3828 -2.75,-1.1484c-0.677,-0.7708 -1.015,-1.8229 -1.015,-3.1562l0,-0.2422c0,-0.8229 0.151,-1.5547 0.453,-2.1953c0.302,-0.6407 0.734,-1.1381 1.297,-1.4922c0.567,-0.3542 1.236,-0.5313 2.007,-0.5313c0.948,0 1.735,0.2839 2.36,0.8516c0.63,0.5677 0.966,1.3047 1.007,2.2109l-1.367,0c-0.041,-0.5469 -0.25,-0.9948 -0.625,-1.3437c-0.369,-0.3542 -0.828,-0.5313 -1.375,-0.5313c-0.734,0 -1.304,0.2657 -1.711,0.7969c-0.401,0.526 -0.601,1.2891 -0.601,2.2891l0,0.2734c0,0.974 0.2,1.724 0.601,2.25c0.401,0.526 0.974,0.7891 1.719,0.7891zm0.235,1.0937l-0.094,0.4063c0.797,0.1406 1.195,0.5911 1.195,1.3515c0,0.5052 -0.208,0.9037 -0.625,1.1953c-0.417,0.2969 -0.997,0.4454 -1.742,0.4454l-0.055,-0.836c0.412,0 0.729,-0.0677 0.953,-0.2031c0.229,-0.1354 0.344,-0.3255 0.344,-0.5703c0,-0.2292 -0.083,-0.3985 -0.25,-0.5078c-0.167,-0.1094 -0.505,-0.1875 -1.016,-0.2344l0.25,-1.0469l1.04,0zm9.968,-0.0703c-0.083,-0.1667 -0.151,-0.4635 -0.203,-0.8906c-0.672,0.6979 -1.474,1.0468 -2.406,1.0468c-0.833,0 -1.518,-0.2343 -2.055,-0.7031c-0.531,-0.4739 -0.797,-1.0729 -0.797,-1.7969c0,-0.8802 0.334,-1.5624 1,-2.0468c0.672,-0.4896 1.615,-0.7344 2.828,-0.7344l1.407,0l0,-0.6641c0,-0.5052 -0.151,-0.9062 -0.453,-1.2031c-0.303,-0.3021 -0.748,-0.4531 -1.336,-0.4531c-0.516,0 -0.948,0.1302 -1.297,0.3906c-0.349,0.2604 -0.524,0.5755 -0.524,0.9453l-1.453,0c0,-0.4218 0.149,-0.8281 0.445,-1.2187c0.303,-0.3959 0.709,-0.7084 1.219,-0.9375c0.516,-0.2292 1.081,-0.3438 1.696,-0.3438c0.974,0 1.737,0.2448 2.289,0.7344c0.552,0.4844 0.838,1.1536 0.859,2.0078l0,3.8906c0,0.7761 0.099,1.3933 0.297,1.8516l0,0.125l-1.516,0zm-2.398,-1.1016c0.453,0 0.883,-0.1172 1.289,-0.3515c0.406,-0.2344 0.7,-0.5391 0.883,-0.9141l0,-1.7344l-1.133,0c-1.771,0 -2.656,0.5183 -2.656,1.5547c0,0.4531 0.151,0.8073 0.453,1.0625c0.302,0.2552 0.69,0.3828 1.164,0.3828z"/>
  <path id="svg_17" fill="#3EC5CC" d="m518.75,65.7422l-4.93,0l0,4.0312l5.727,0l0,1.2266l-7.227,0l0,-11.375l7.149,0l0,1.2344l-5.649,0l0,3.6562l4.93,0l0,1.2266zm5.273,-0.1094l1.875,-3.0859l1.688,0l-2.766,4.1797l2.852,4.2734l-1.672,0l-1.953,-3.1641l-1.953,3.1641l-1.68,0l2.852,-4.2734l-2.766,-4.1797l1.672,0l1.851,3.0859zm10.321,5.3672c-0.084,-0.1667 -0.151,-0.4635 -0.203,-0.8906c-0.672,0.6979 -1.474,1.0468 -2.407,1.0468c-0.833,0 -1.518,-0.2343 -2.054,-0.7031c-0.532,-0.4739 -0.797,-1.0729 -0.797,-1.7969c0,-0.8802 0.333,-1.5624 1,-2.0468c0.672,-0.4896 1.614,-0.7344 2.828,-0.7344l1.406,0l0,-0.6641c0,-0.5052 -0.151,-0.9062 -0.453,-1.2031c-0.302,-0.3021 -0.747,-0.4531 -1.336,-0.4531c-0.516,0 -0.948,0.1302 -1.297,0.3906c-0.349,0.2604 -0.523,0.5755 -0.523,0.9453l-1.453,0c0,-0.4218 0.148,-0.8281 0.445,-1.2187c0.302,-0.3959 0.708,-0.7084 1.219,-0.9375c0.515,-0.2292 1.08,-0.3438 1.695,-0.3438c0.974,0 1.737,0.2448 2.289,0.7344c0.552,0.4844 0.839,1.1536 0.859,2.0078l0,3.8906c0,0.7761 0.099,1.3933 0.297,1.8516l0,0.125l-1.515,0zm-2.399,-1.1016c0.453,0 0.883,-0.1172 1.289,-0.3515c0.407,-0.2344 0.701,-0.5391 0.883,-0.9141l0,-1.7344l-1.133,0c-1.77,0 -2.656,0.5183 -2.656,1.5547c0,0.4531 0.151,0.8073 0.453,1.0625c0.302,0.2552 0.69,0.3828 1.164,0.3828zm7.243,-7.3515l0.039,0.9375c0.619,-0.7292 1.455,-1.0938 2.507,-1.0938c1.183,0 1.987,0.4532 2.414,1.3594c0.282,-0.4062 0.646,-0.7344 1.094,-0.9844c0.453,-0.25 0.987,-0.375 1.602,-0.375c1.854,0 2.797,0.9818 2.828,2.9453l0,5.6641l-1.445,0l0,-5.5781c0,-0.6042 -0.138,-1.0547 -0.415,-1.3516c-0.276,-0.3021 -0.739,-0.4531 -1.39,-0.4531c-0.537,0 -0.982,0.1614 -1.336,0.4844c-0.354,0.3177 -0.56,0.7474 -0.617,1.289l0,5.6094l-1.453,0l0,-5.5391c0,-1.2291 -0.602,-1.8437 -1.805,-1.8437c-0.948,0 -1.596,0.4036 -1.945,1.2109l0,6.1719l-1.446,0l0,-8.4531l1.368,0zm16.179,8.6093c-1.146,0 -2.078,-0.375 -2.797,-1.125c-0.718,-0.7552 -1.078,-1.763 -1.078,-3.0234l0,-0.2656c0,-0.8386 0.159,-1.586 0.477,-2.2422c0.323,-0.6615 0.771,-1.1771 1.343,-1.5469c0.579,-0.375 1.204,-0.5625 1.876,-0.5625c1.098,0 1.953,0.362 2.562,1.086c0.609,0.7239 0.914,1.7604 0.914,3.1093l0,0.6016l-5.726,0c0.02,0.8333 0.263,1.5078 0.726,2.0234c0.469,0.5105 1.063,0.7657 1.781,0.7657c0.511,0 0.943,-0.1042 1.297,-0.3125c0.354,-0.2084 0.664,-0.4844 0.93,-0.8282l0.883,0.6875c-0.709,1.0886 -1.771,1.6328 -3.188,1.6328zm-0.179,-7.5781c-0.584,0 -1.073,0.2136 -1.469,0.6407c-0.396,0.4218 -0.641,1.0156 -0.735,1.7812l4.235,0l0,-0.1094c-0.042,-0.7344 -0.24,-1.3021 -0.594,-1.7031c-0.354,-0.4063 -0.833,-0.6094 -1.437,-0.6094z"/>
  <path id="svg_18" fill="#3EC5CC" d="m648.688,68.3906c-0.141,1.2032 -0.586,2.1328 -1.336,2.7891c-0.745,0.651 -1.737,0.9765 -2.977,0.9765c-1.344,0 -2.422,-0.4817 -3.234,-1.4453c-0.808,-0.9635 -1.211,-2.2526 -1.211,-3.8671l0,-1.0938c0,-1.0573 0.187,-1.987 0.562,-2.7891c0.38,-0.802 0.917,-1.4166 1.61,-1.8437c0.692,-0.4323 1.494,-0.6484 2.406,-0.6484c1.208,0 2.177,0.3385 2.906,1.0156c0.729,0.6718 1.154,1.6041 1.274,2.7968l-1.508,0c-0.131,-0.9062 -0.414,-1.5624 -0.852,-1.9687c-0.432,-0.4063 -1.039,-0.6094 -1.82,-0.6094c-0.959,0 -1.711,0.3542 -2.258,1.0625c-0.542,0.7084 -0.812,1.7162 -0.812,3.0235l0,1.1015c0,1.2344 0.257,2.2162 0.773,2.9453c0.516,0.7292 1.237,1.0938 2.164,1.0938c0.833,0 1.471,-0.1875 1.914,-0.5625c0.448,-0.3802 0.745,-1.0391 0.891,-1.9766l1.508,0zm1.445,-0.6953c0,-0.8281 0.161,-1.5729 0.484,-2.2344c0.328,-0.6614 0.781,-1.1718 1.36,-1.5312c0.583,-0.3594 1.247,-0.5391 1.992,-0.5391c1.151,0 2.08,0.3985 2.789,1.1953c0.713,0.7969 1.07,1.8568 1.07,3.1797l0,0.1016c0,0.8229 -0.159,1.5625 -0.476,2.2187c-0.313,0.6511 -0.763,1.1589 -1.352,1.5235c-0.583,0.3646 -1.255,0.5468 -2.016,0.5468c-1.145,0 -2.075,-0.3984 -2.789,-1.1953c-0.708,-0.7968 -1.062,-1.8515 -1.062,-3.164l0,-0.1016zm1.453,0.1719c0,0.9375 0.216,1.6901 0.648,2.2578c0.438,0.5677 1.021,0.8516 1.75,0.8516c0.735,0 1.318,-0.2865 1.75,-0.8594c0.433,-0.5781 0.649,-1.3854 0.649,-2.4219c0,-0.9271 -0.222,-1.6771 -0.664,-2.25c-0.438,-0.5781 -1.021,-0.8672 -1.75,-0.8672c-0.714,0 -1.289,0.2839 -1.727,0.8516c-0.437,0.5677 -0.656,1.3802 -0.656,2.4375zm9.422,-4.3203l0.047,1.0625c0.646,-0.8125 1.489,-1.2188 2.531,-1.2188c1.786,0 2.687,1.0078 2.703,3.0235l0,5.5859l-1.445,0l0,-5.5938c-0.005,-0.6093 -0.146,-1.0598 -0.422,-1.3515c-0.271,-0.2917 -0.695,-0.4375 -1.274,-0.4375c-0.468,0 -0.88,0.125 -1.234,0.375c-0.354,0.25 -0.63,0.5781 -0.828,0.9844l0,6.0234l-1.445,0l0,-8.4531l1.367,0zm7.945,8.4531l0,-7.3359l-1.336,0l0,-1.1172l1.336,0l0,-0.7188c0,-0.9427 0.268,-1.6771 0.805,-2.2031c0.541,-0.526 1.304,-0.7891 2.289,-0.7891c0.583,0 1.32,0.1589 2.211,0.4766l-0.242,1.2187c-0.651,-0.2604 -1.271,-0.3906 -1.86,-0.3906c-0.62,0 -1.067,0.1406 -1.344,0.4219c-0.27,0.276 -0.406,0.6927 -0.406,1.25l0,0.7344l1.727,0l0,1.1172l-1.727,0l0,7.3359l-1.453,0zm6.024,0l-1.454,0l0,-8.4531l1.454,0l0,8.4531zm6.437,-7.1562c-0.219,-0.0365 -0.456,-0.0547 -0.711,-0.0547c-0.948,0 -1.591,0.4036 -1.93,1.2109l0,6l-1.445,0l0,-8.4531l1.406,0l0.024,0.9765c0.474,-0.7552 1.146,-1.1328 2.015,-1.1328c0.282,0 0.495,0.0365 0.641,0.1094l0,1.3438zm2.695,-1.2969l0.039,0.9375c0.62,-0.7292 1.456,-1.0938 2.508,-1.0938c1.183,0 1.987,0.4532 2.414,1.3594c0.282,-0.4062 0.646,-0.7344 1.094,-0.9844c0.453,-0.25 0.987,-0.375 1.602,-0.375c1.854,0 2.796,0.9818 2.828,2.9453l0,5.6641l-1.446,0l0,-5.5781c0,-0.6042 -0.138,-1.0547 -0.414,-1.3516c-0.276,-0.3021 -0.739,-0.4531 -1.39,-0.4531c-0.537,0 -0.982,0.1614 -1.336,0.4844c-0.354,0.3177 -0.56,0.7474 -0.617,1.289l0,5.6094l-1.453,0l0,-5.5391c0,-1.2291 -0.602,-1.8437 -1.805,-1.8437c-0.948,0 -1.597,0.4036 -1.945,1.2109l0,6.1719l-1.446,0l0,-8.4531l1.367,0zm17.891,8.4531c-0.083,-0.1667 -0.151,-0.4635 -0.203,-0.8906c-0.672,0.6979 -1.474,1.0468 -2.406,1.0468c-0.834,0 -1.519,-0.2343 -2.055,-0.7031c-0.531,-0.4739 -0.797,-1.0729 -0.797,-1.7969c0,-0.8802 0.333,-1.5624 1,-2.0468c0.672,-0.4896 1.615,-0.7344 2.828,-0.7344l1.406,0l0,-0.6641c0,-0.5052 -0.151,-0.9062 -0.453,-1.2031c-0.302,-0.3021 -0.747,-0.4531 -1.336,-0.4531c-0.515,0 -0.948,0.1302 -1.296,0.3906c-0.349,0.2604 -0.524,0.5755 -0.524,0.9453l-1.453,0c0,-0.4218 0.148,-0.8281 0.445,-1.2187c0.302,-0.3959 0.709,-0.7084 1.219,-0.9375c0.516,-0.2292 1.081,-0.3438 1.695,-0.3438c0.974,0 1.737,0.2448 2.289,0.7344c0.552,0.4844 0.839,1.1536 0.86,2.0078l0,3.8906c0,0.7761 0.099,1.3933 0.297,1.8516l0,0.125l-1.516,0zm-2.398,-1.1016c0.453,0 0.882,-0.1172 1.289,-0.3515c0.406,-0.2344 0.7,-0.5391 0.882,-0.9141l0,-1.7344l-1.132,0c-1.771,0 -2.657,0.5183 -2.657,1.5547c0,0.4531 0.151,0.8073 0.454,1.0625c0.302,0.2552 0.69,0.3828 1.164,0.3828zm9.968,-6.0546c-0.218,-0.0365 -0.455,-0.0547 -0.711,-0.0547c-0.948,0 -1.591,0.4036 -1.929,1.2109l0,6l-1.446,0l0,-8.4531l1.407,0l0.023,0.9765c0.474,-0.7552 1.146,-1.1328 2.016,-1.1328c0.281,0 0.494,0.0365 0.64,0.1094l0,1.3438z"/>
  <path id="svg_19" fill="#3EC5CC" d="m2.92969,71.3333l-1.5,0l0,-11.375l1.5,0l0,11.375zm3.89062,-8.4531l0.04688,1.0625c0.64583,-0.8125 1.48958,-1.2187 2.53125,-1.2187c1.78646,0 2.68746,1.0078 2.70316,3.0234l0,5.5859l-1.4454,0l0,-5.5937c-0.0052,-0.6094 -0.1458,-1.0599 -0.4218,-1.3516c-0.27086,-0.2917 -0.69534,-0.4375 -1.27346,-0.4375c-0.46875,0 -0.88021,0.125 -1.23438,0.375c-0.35416,0.25 -0.63021,0.5781 -0.82812,0.9844l0,6.0234l-1.44532,0l0,-8.4531l1.36719,0zm8.17189,8.4531l0,-7.3359l-1.336,0l0,-1.1172l1.336,0l0,-0.8672c0,-0.9062 0.2422,-1.6068 0.7266,-2.1015c0.4843,-0.4948 1.1692,-0.7422 2.0546,-0.7422c0.3334,0 0.6641,0.0442 0.9922,0.1328l-0.0781,1.1719c-0.2448,-0.0469 -0.5052,-0.0704 -0.7813,-0.0704c-0.4687,0 -0.8307,0.1381 -1.0859,0.4141c-0.2552,0.2708 -0.3828,0.6615 -0.3828,1.1719l0,0.8906l1.8047,0l0,1.1172l-1.8047,0l0,7.3359l-1.4453,0zm4.4687,-4.3047c0,-0.8281 0.1615,-1.5729 0.4844,-2.2343c0.3281,-0.6615 0.7813,-1.1719 1.3594,-1.5313c0.5833,-0.3594 1.2474,-0.539 1.9922,-0.539c1.151,0 2.0807,0.3984 2.789,1.1953c0.7136,0.7968 1.0703,1.8567 1.0703,3.1797l0,0.1015c0,0.8229 -0.1588,1.5625 -0.4765,2.2188c-0.3125,0.651 -0.763,1.1588 -1.3516,1.5234c-0.5833,0.3646 -1.2552,0.5469 -2.0156,0.5469c-1.1458,0 -2.0755,-0.3985 -2.7891,-1.1953c-0.7083,-0.7969 -1.0625,-1.8516 -1.0625,-3.1641l0,-0.1016zm1.4532,0.1719c0,0.9375 0.2161,1.6901 0.6484,2.2578c0.4375,0.5677 1.0208,0.8516 1.75,0.8516c0.7344,0 1.3177,-0.2865 1.75,-0.8594c0.4323,-0.5781 0.6484,-1.3854 0.6484,-2.4219c0,-0.927 -0.2213,-1.677 -0.664,-2.25c-0.4375,-0.5781 -1.0209,-0.8671 -1.75,-0.8671c-0.7136,0 -1.2891,0.2838 -1.7266,0.8515c-0.4375,0.5677 -0.6562,1.3802 -0.6562,2.4375zm12.1406,-3.0234c-0.2188,-0.0365 -0.4557,-0.0547 -0.7109,-0.0547c-0.948,0 -1.5912,0.4036 -1.9297,1.2109l0,6l-1.4453,0l0,-8.4531l1.4062,0l0.0234,0.9766c0.474,-0.7552 1.1459,-1.1328 2.0157,-1.1328c0.2812,0 0.4948,0.0364 0.6406,0.1093l0,1.3438zm2.6953,-1.2969l0.0391,0.9375c0.6198,-0.7292 1.4557,-1.0937 2.5078,-1.0937c1.1823,0 1.987,0.4531 2.414,1.3593c0.2813,-0.4062 0.6459,-0.7343 1.0938,-0.9843c0.4531,-0.25 0.987,-0.375 1.6015,-0.375c1.8542,0 2.7969,0.9817 2.8282,2.9453l0,5.664l-1.4453,0l0,-5.5781c0,-0.6042 -0.1381,-1.0547 -0.4141,-1.3516c-0.276,-0.302 -0.7396,-0.4531 -1.3906,-0.4531c-0.5365,0 -0.9818,0.1615 -1.336,0.4844c-0.3541,0.3177 -0.5599,0.7474 -0.6172,1.2891l0,5.6093l-1.4531,0l0,-5.539c0,-1.2292 -0.6015,-1.8438 -1.8047,-1.8438c-0.9479,0 -1.5963,0.4037 -1.9453,1.211l0,6.1718l-1.4453,0l0,-8.4531l1.3672,0zm17.8906,8.4531c-0.0833,-0.1666 -0.151,-0.4635 -0.2031,-0.8906c-0.6719,0.6979 -1.474,1.0469 -2.4063,1.0469c-0.8333,0 -1.5182,-0.2344 -2.0546,-0.7031c-0.5313,-0.474 -0.7969,-1.073 -0.7969,-1.7969c0,-0.8802 0.3333,-1.5625 1,-2.0469c0.6719,-0.4896 1.6146,-0.7344 2.8281,-0.7344l1.4063,0l0,-0.664c0,-0.5052 -0.1511,-0.9063 -0.4532,-1.2032c-0.302,-0.302 -0.7474,-0.4531 -1.3359,-0.4531c-0.5156,0 -0.9479,0.1302 -1.2969,0.3906c-0.3489,0.2605 -0.5234,0.5756 -0.5234,0.9454l-1.4531,0c0,-0.4219 0.1484,-0.8282 0.4453,-1.2188c0.3021,-0.3958 0.7083,-0.7083 1.2187,-0.9375c0.5156,-0.2292 1.0808,-0.3437 1.6953,-0.3437c0.974,0 1.737,0.2447 2.2891,0.7343c0.5521,0.4844 0.8385,1.1537 0.8594,2.0078l0,3.8907c0,0.776 0.0989,1.3932 0.2968,1.8515l0,0.125l-1.5156,0zm-2.3984,-1.1015c0.4531,0 0.8828,-0.1172 1.289,-0.3516c0.4063,-0.2344 0.7006,-0.5391 0.8829,-0.9141l0,-1.7343l-1.1329,0c-1.7708,0 -2.6562,0.5182 -2.6562,1.5547c0,0.4531 0.151,0.8072 0.4531,1.0625c0.3021,0.2552 0.6901,0.3828 1.1641,0.3828zm9.2734,0.0781c0.5156,0 0.9662,-0.1563 1.3516,-0.4688c0.3854,-0.3125 0.5989,-0.7031 0.6406,-1.1718l1.3672,0c-0.026,0.4843 -0.1927,0.9453 -0.5,1.3828c-0.3073,0.4375 -0.7188,0.7864 -1.2344,1.0469c-0.5104,0.2604 -1.0521,0.3906 -1.625,0.3906c-1.151,0 -2.0677,-0.3828 -2.75,-1.1485c-0.6771,-0.7708 -1.0156,-1.8229 -1.0156,-3.1562l0,-0.2422c0,-0.8229 0.151,-1.5547 0.4531,-2.1953c0.3021,-0.6406 0.7344,-1.138 1.2969,-1.4922c0.5677,-0.3542 1.237,-0.5312 2.0078,-0.5312c0.9479,0 1.7344,0.2838 2.3594,0.8515c0.6302,0.5677 0.9661,1.3047 1.0078,2.211l-1.3672,0c-0.0417,-0.5469 -0.25,-0.9948 -0.625,-1.3438c-0.3698,-0.3542 -0.8281,-0.5312 -1.375,-0.5312c-0.7344,0 -1.3047,0.2656 -1.7109,0.7968c-0.4011,0.5261 -0.6016,1.2891 -0.6016,2.2891l0,0.2734c0,0.974 0.2005,1.724 0.6016,2.25c0.401,0.5261 0.9739,0.7891 1.7187,0.7891zm0.2344,1.0937l-0.0938,0.4063c0.7969,0.1406 1.1954,0.5911 1.1954,1.3516c0,0.5052 -0.2084,0.9036 -0.625,1.1953c-0.4167,0.2968 -0.9974,0.4453 -1.7422,0.4453l-0.0547,-0.836c0.4114,0 0.7292,-0.0677 0.9531,-0.2031c0.2292,-0.1354 0.3438,-0.3255 0.3438,-0.5703c0,-0.2292 -0.0834,-0.3984 -0.25,-0.5078c-0.1667,-0.1094 -0.5052,-0.1875 -1.0157,-0.2344l0.25,-1.0469l1.0391,0zm4.3672,-4.375c0,-0.8281 0.1614,-1.5729 0.4844,-2.2343c0.3281,-0.6615 0.7812,-1.1719 1.3593,-1.5313c0.5834,-0.3594 1.2474,-0.539 1.9922,-0.539c1.1511,0 2.0808,0.3984 2.7891,1.1953c0.7135,0.7968 1.0703,1.8567 1.0703,3.1797l0,0.1015c0,0.8229 -0.1589,1.5625 -0.4766,2.2188c-0.3125,0.651 -0.763,1.1588 -1.3515,1.5234c-0.5834,0.3646 -1.2552,0.5469 -2.0156,0.5469c-1.1459,0 -2.0756,-0.3985 -2.7891,-1.1953c-0.7083,-0.7969 -1.0625,-1.8516 -1.0625,-3.1641l0,-0.1016zm1.4531,0.1719c0,0.9375 0.2162,1.6901 0.6485,2.2578c0.4374,0.5677 1.0208,0.8516 1.75,0.8516c0.7343,0 1.3177,-0.2865 1.75,-0.8594c0.4322,-0.5781 0.6484,-1.3854 0.6484,-2.4219c0,-0.927 -0.2214,-1.677 -0.6641,-2.25c-0.4375,-0.5781 -1.0208,-0.8671 -1.75,-0.8671c-0.7135,0 -1.289,0.2838 -1.7265,0.8515c-0.4375,0.5677 -0.6563,1.3802 -0.6563,2.4375zm5.1016,-7.6172c0,0.5625 -0.1615,1.0183 -0.4844,1.3672c-0.3177,0.349 -0.7161,0.5235 -1.1953,0.5235c-0.2136,0 -0.3984,-0.0261 -0.5547,-0.0782c-0.1563,-0.0521 -0.362,-0.1588 -0.6172,-0.3203c-0.25,-0.1614 -0.4323,-0.2578 -0.5469,-0.289c-0.1093,-0.0365 -0.2369,-0.0547 -0.3828,-0.0547c-0.2135,0 -0.3958,0.0833 -0.5468,0.25c-0.1511,0.1614 -0.2266,0.3698 -0.2266,0.625l-0.9688,-0.0547c0,-0.5573 0.1563,-1.0183 0.4688,-1.3828c0.3177,-0.3646 0.7187,-0.5469 1.2031,-0.5469c0.1823,0 0.3464,0.026 0.4922,0.0781c0.1458,0.0521 0.3437,0.1537 0.5937,0.3047c0.25,0.151 0.4402,0.25 0.5704,0.2969c0.1354,0.0469 0.2838,0.0703 0.4453,0.0703c0.2239,0 0.4088,-0.0886 0.5547,-0.2656c0.151,-0.1771 0.2265,-0.3828 0.2265,-0.6172l0.9688,0.0937zm6.4609,11.9063c-1.1458,0 -2.0781,-0.375 -2.7969,-1.125c-0.7187,-0.7552 -1.0781,-1.763 -1.0781,-3.0235l0,-0.2656c0,-0.8385 0.1589,-1.5859 0.4766,-2.2422c0.3229,-0.6614 0.7708,-1.1771 1.3437,-1.5468c0.5781,-0.375 1.2031,-0.5625 1.875,-0.5625c1.099,0 1.9531,0.3619 2.5625,1.0859c0.6094,0.7239 0.9141,1.7604 0.9141,3.1094l0,0.6015l-5.7266,0c0.0209,0.8334 0.263,1.5078 0.7266,2.0235c0.4687,0.5104 1.0625,0.7656 1.7812,0.7656c0.5105,0 0.9427,-0.1042 1.2969,-0.3125c0.3542,-0.2083 0.6641,-0.4844 0.9297,-0.8281l0.8828,0.6875c-0.7083,1.0885 -1.7708,1.6328 -3.1875,1.6328zm-0.1797,-7.5781c-0.5833,0 -1.0729,0.2135 -1.4687,0.6406c-0.3959,0.4219 -0.6406,1.0156 -0.7344,1.7812l4.2344,0l0,-0.1093c-0.0417,-0.7344 -0.2396,-1.3021 -0.5938,-1.7032c-0.3541,-0.4062 -0.8333,-0.6093 -1.4375,-0.6093zm10.0781,5.1796c0,-0.3906 -0.1484,-0.6927 -0.4453,-0.9062c-0.2916,-0.2188 -0.8047,-0.4063 -1.539,-0.5625c-0.7292,-0.1563 -1.3099,-0.3438 -1.7422,-0.5625c-0.4271,-0.2188 -0.7448,-0.4792 -0.9531,-0.7813c-0.2032,-0.302 -0.3047,-0.6614 -0.3047,-1.0781c0,-0.6927 0.2916,-1.2786 0.875,-1.7578c0.5885,-0.4792 1.3385,-0.7187 2.25,-0.7187c0.9583,0 1.7343,0.2473 2.3281,0.7421c0.599,0.4948 0.8984,1.1276 0.8984,1.8985l-1.4531,0c0,-0.3959 -0.1693,-0.737 -0.5078,-1.0235c-0.3333,-0.2864 -0.7552,-0.4296 -1.2656,-0.4296c-0.5261,0 -0.9375,0.1145 -1.2344,0.3437c-0.2969,0.2292 -0.4453,0.5286 -0.4453,0.8984c0,0.349 0.138,0.612 0.414,0.7891c0.2761,0.1771 0.7735,0.3464 1.4922,0.5078c0.724,0.1615 1.3099,0.3542 1.7578,0.5781c0.448,0.224 0.7787,0.4948 0.9922,0.8125c0.2188,0.3125 0.3282,0.6954 0.3282,1.1485c0,0.7552 -0.3021,1.362 -0.9063,1.8203c-0.6042,0.4531 -1.388,0.6797 -2.3515,0.6797c-0.6771,0 -1.2761,-0.1198 -1.7969,-0.3594c-0.5209,-0.2396 -0.9297,-0.5729 -1.2266,-1c-0.2917,-0.4323 -0.4375,-0.8984 -0.4375,-1.3984l1.4453,0c0.0261,0.4843 0.2188,0.8698 0.5781,1.1562c0.3646,0.2813 0.8438,0.4219 1.4376,0.4219c0.5468,0 0.9843,-0.1094 1.3124,-0.3281c0.3334,-0.224 0.5,-0.5209 0.5,-0.8907zm15.9218,0.75c-0.385,0.5521 -0.924,0.9662 -1.617,1.2422c-0.688,0.2709 -1.49,0.4063 -2.4063,0.4063c-0.9271,0 -1.75,-0.2162 -2.4688,-0.6485c-0.7187,-0.4375 -1.276,-1.0573 -1.6718,-1.8593c-0.3907,-0.8021 -0.5912,-1.7318 -0.6016,-2.7891l0,-0.9922c0,-1.7135 0.3984,-3.0417 1.1953,-3.9844c0.8021,-0.9427 1.9271,-1.414 3.375,-1.414c1.1872,0 2.1432,0.3047 2.8672,0.914c0.724,0.6042 1.167,1.4636 1.328,2.5782l-1.5,0c-0.281,-1.5052 -1.177,-2.2578 -2.6874,-2.2578c-1.0052,0 -1.7682,0.3541 -2.289,1.0625c-0.5157,0.7031 -0.7761,1.7239 -0.7813,3.0625l0,0.9296c0,1.2761 0.2917,2.2917 0.875,3.0469c0.5833,0.75 1.3724,1.125 2.3672,1.125c0.5625,0 1.0545,-0.0625 1.4765,-0.1875c0.422,-0.125 0.771,-0.3359 1.047,-0.6328l0,-2.5547l-2.6329,0l0,-1.2187l4.1249,0l0,4.1718zm5.789,1.6485c-1.146,0 -2.078,-0.375 -2.797,-1.125c-0.718,-0.7552 -1.078,-1.763 -1.078,-3.0235l0,-0.2656c0,-0.8385 0.159,-1.5859 0.477,-2.2422c0.323,-0.6614 0.771,-1.1771 1.344,-1.5468c0.578,-0.375 1.203,-0.5625 1.874,-0.5625c1.099,0 1.954,0.3619 2.563,1.0859c0.609,0.7239 0.914,1.7604 0.914,3.1094l0,0.6015l-5.727,0c0.021,0.8334 0.264,1.5078 0.727,2.0235c0.469,0.5104 1.063,0.7656 1.781,0.7656c0.511,0 0.943,-0.1042 1.297,-0.3125c0.354,-0.2083 0.664,-0.4844 0.93,-0.8281l0.883,0.6875c-0.709,1.0885 -1.771,1.6328 -3.188,1.6328zm-0.18,-7.5781c-0.583,0 -1.072,0.2135 -1.468,0.6406c-0.396,0.4219 -0.641,1.0156 -0.735,1.7812l4.235,0l0,-0.1093c-0.042,-0.7344 -0.24,-1.3021 -0.594,-1.7032c-0.354,-0.4062 -0.833,-0.6093 -1.438,-0.6093zm9.243,0.2656c-0.219,-0.0365 -0.456,-0.0547 -0.711,-0.0547c-0.948,0 -1.591,0.4036 -1.93,1.2109l0,6l-1.445,0l0,-8.4531l1.406,0l0.023,0.9766c0.474,-0.7552 1.146,-1.1328 2.016,-1.1328c0.281,0 0.495,0.0364 0.641,0.1093l0,1.3438zm6.242,7.1562c-0.083,-0.1666 -0.151,-0.4635 -0.203,-0.8906c-0.672,0.6979 -1.474,1.0469 -2.406,1.0469c-0.834,0 -1.519,-0.2344 -2.055,-0.7031c-0.531,-0.474 -0.797,-1.073 -0.797,-1.7969c0,-0.8802 0.333,-1.5625 1,-2.0469c0.672,-0.4896 1.615,-0.7344 2.828,-0.7344l1.406,0l0,-0.664c0,-0.5052 -0.151,-0.9063 -0.453,-1.2032c-0.302,-0.302 -0.747,-0.4531 -1.336,-0.4531c-0.515,0 -0.948,0.1302 -1.297,0.3906c-0.349,0.2605 -0.523,0.5756 -0.523,0.9454l-1.453,0c0,-0.4219 0.148,-0.8282 0.445,-1.2188c0.302,-0.3958 0.708,-0.7083 1.219,-0.9375c0.516,-0.2292 1.081,-0.3437 1.695,-0.3437c0.974,0 1.737,0.2447 2.289,0.7343c0.552,0.4844 0.839,1.1537 0.86,2.0078l0,3.8907c0,0.776 0.099,1.3932 0.296,1.8515l0,0.125l-1.515,0zm-2.399,-1.1015c0.454,0 0.883,-0.1172 1.29,-0.3516c0.406,-0.2344 0.7,-0.5391 0.882,-0.9141l0,-1.7343l-1.132,0c-1.771,0 -2.657,0.5182 -2.657,1.5547c0,0.4531 0.151,0.8072 0.453,1.0625c0.302,0.2552 0.69,0.3828 1.164,0.3828zm7.454,1.1015l-1.446,0l0,-8.4531l1.446,0l0,8.4531zm-1.563,-10.6953c0,-0.2344 0.07,-0.4323 0.211,-0.5937c0.146,-0.1615 0.359,-0.2422 0.641,-0.2422c0.281,0 0.494,0.0807 0.64,0.2422c0.146,0.1614 0.219,0.3593 0.219,0.5937c0,0.2344 -0.073,0.4297 -0.219,0.586c-0.146,0.1562 -0.359,0.2343 -0.64,0.2343c-0.282,0 -0.495,-0.0781 -0.641,-0.2343c-0.141,-0.1563 -0.211,-0.3516 -0.211,-0.586zm8.805,8.4531c0,-0.3906 -0.149,-0.6927 -0.446,-0.9062c-0.291,-0.2188 -0.804,-0.4063 -1.539,-0.5625c-0.729,-0.1563 -1.31,-0.3438 -1.742,-0.5625c-0.427,-0.2188 -0.745,-0.4792 -0.953,-0.7813c-0.203,-0.302 -0.305,-0.6614 -0.305,-1.0781c0,-0.6927 0.292,-1.2786 0.875,-1.7578c0.589,-0.4792 1.339,-0.7187 2.25,-0.7187c0.959,0 1.735,0.2473 2.328,0.7421c0.599,0.4948 0.899,1.1276 0.899,1.8985l-1.453,0c0,-0.3959 -0.169,-0.737 -0.508,-1.0235c-0.333,-0.2864 -0.755,-0.4296 -1.266,-0.4296c-0.526,0 -0.937,0.1145 -1.234,0.3437c-0.297,0.2292 -0.445,0.5286 -0.445,0.8984c0,0.349 0.138,0.612 0.414,0.7891c0.276,0.1771 0.773,0.3464 1.492,0.5078c0.724,0.1615 1.31,0.3542 1.758,0.5781c0.448,0.224 0.778,0.4948 0.992,0.8125c0.219,0.3125 0.328,0.6954 0.328,1.1485c0,0.7552 -0.302,1.362 -0.906,1.8203c-0.604,0.4531 -1.388,0.6797 -2.352,0.6797c-0.677,0 -1.276,-0.1198 -1.797,-0.3594c-0.52,-0.2396 -0.929,-0.5729 -1.226,-1c-0.292,-0.4323 -0.438,-0.8984 -0.438,-1.3984l1.446,0c0.026,0.4843 0.218,0.8698 0.578,1.1562c0.364,0.2813 0.844,0.4219 1.437,0.4219c0.547,0 0.985,-0.1094 1.313,-0.3281c0.333,-0.224 0.5,-0.5209 0.5,-0.8907z"/>
  <line stroke="#3EC5CC" id="svg_21" y2="24.42303" x2="198" y1="24.42303" x1="100"/>
 </g>
</svg>