<svg width="21" height="17" viewBox="0 0 21 17" fill="none" xmlns="http://www.w3.org/2000/svg">
<path d="M9.87891 4.45312C9.97266 4.40625 10.0664 4.38281 10.1602 4.38281C10.2539 4.38281 10.3477 4.40625 10.4414 4.45312L16.9102 9.79688V15.5625C16.9102 15.7266 16.8516 15.8555 16.7344 15.9492C16.6406 16.0664 16.5117 16.125 16.3477 16.125H12.4102C12.2461 16.125 12.1055 16.0664 11.9883 15.9492C11.8945 15.832 11.8477 15.7031 11.8477 15.5625V12.1875C11.8477 12.0938 11.8242 12 11.7773 11.9062C11.7305 11.8125 11.6602 11.7422 11.5664 11.6953C11.4727 11.6484 11.3789 11.625 11.2852 11.625H9.03516C8.87109 11.625 8.73047 11.6836 8.61328 11.8008C8.51953 11.8945 8.47266 12.0234 8.47266 12.1875V15.5625C8.47266 15.7031 8.41406 15.832 8.29688 15.9492C8.20312 16.0664 8.07422 16.125 7.91016 16.125H3.97266C3.80859 16.125 3.66797 16.0664 3.55078 15.9492C3.45703 15.8555 3.41016 15.7266 3.41016 15.5625V9.79688L9.87891 4.45312ZM20.1445 8.07422C20.2383 8.16797 20.2852 8.28516 20.2852 8.42578C20.2852 8.51953 20.25 8.60156 20.1797 8.67188L19.3008 9.76172C19.207 9.87891 19.1016 9.9375 18.9844 9.9375C18.8672 9.9375 18.7734 9.90234 18.7031 9.83203L10.4414 3.01172C10.3477 2.96484 10.2539 2.94141 10.1602 2.94141C10.0664 2.94141 9.97266 2.96484 9.87891 3.01172L1.61719 9.83203C1.54688 9.90234 1.46484 9.9375 1.37109 9.9375C1.23047 9.9375 1.11328 9.87891 1.01953 9.76172L0.140625 8.67188C0.0703125 8.60156 0.0351562 8.51953 0.0351562 8.42578C0.0351562 8.28516 0.0820312 8.16797 0.175781 8.07422L9.07031 0.761719C9.39844 0.503906 9.76172 0.375 10.1602 0.375C10.5586 0.375 10.9102 0.503906 11.2148 0.761719L14.3789 3.36328V0.796875C14.3789 0.679688 14.4141 0.585938 14.4844 0.515625C14.5781 0.421875 14.6836 0.375 14.8008 0.375H16.7695C16.8867 0.375 16.9805 0.421875 17.0508 0.515625C17.1445 0.585938 17.1914 0.679688 17.1914 0.796875V5.68359L20.1445 8.07422Z" fill="white"/>
</svg>
