<svg width="18" height="15" viewBox="0 0 18 15" fill="none" xmlns="http://www.w3.org/2000/svg">
<path d="M17.4727 7.84766L11.5664 13.7539C11.3086 14.0117 11.0039 14.0703 10.6523 13.9297C10.3008 13.7891 10.125 13.5312 10.125 13.1562V9.78125H5.34375C5.10938 9.78125 4.91016 9.69922 4.74609 9.53516C4.58203 9.37109 4.5 9.17188 4.5 8.9375V5.5625C4.5 5.32812 4.58203 5.12891 4.74609 4.96484C4.91016 4.80078 5.10938 4.71875 5.34375 4.71875H10.125V1.34375C10.125 0.96875 10.3008 0.710938 10.6523 0.570312C11.0039 0.429688 11.3086 0.488281 11.5664 0.746094L17.4727 6.65234C17.6367 6.81641 17.7188 7.01562 17.7188 7.25C17.7188 7.48438 17.6367 7.68359 17.4727 7.84766ZM6.75 13.5781C6.75 13.8594 6.60938 14 6.32812 14H3.375C2.4375 14 1.64062 13.6719 0.984375 13.0156C0.328125 12.3594 0 11.5625 0 10.625V3.875C0 2.9375 0.328125 2.14063 0.984375 1.48438C1.64062 0.828125 2.4375 0.5 3.375 0.5H6.32812C6.60938 0.5 6.75 0.640625 6.75 0.921875V2.32812C6.75 2.60938 6.60938 2.75 6.32812 2.75H3.375C3.07031 2.75 2.80078 2.86719 2.56641 3.10156C2.35547 3.3125 2.25 3.57031 2.25 3.875V10.625C2.25 10.9297 2.35547 11.1992 2.56641 11.4336C2.80078 11.6445 3.07031 11.75 3.375 11.75H6.32812C6.60938 11.75 6.75 11.8906 6.75 12.1719V13.5781Z" fill="white"/>
</svg>
