<svg width="21" height="14" viewBox="0 0 21 14" fill="none" xmlns="http://www.w3.org/2000/svg">
<path d="M20.1445 8.51562L17.5781 12.875C17.4141 13.1797 17.1328 13.4492 16.7344 13.6836C16.3594 13.8945 15.9961 14 15.6445 14H1.58203C1.25391 14 1.00781 13.8594 0.84375 13.5781C0.679688 13.2969 0.679688 13.0156 0.84375 12.7344L3.41016 8.375C3.57422 8.07031 3.84375 7.8125 4.21875 7.60156C4.61719 7.36719 4.99219 7.25 5.34375 7.25H19.4062C19.7344 7.25 19.9805 7.39062 20.1445 7.67188C20.3086 7.95312 20.3086 8.23438 20.1445 8.51562ZM5.34375 6.125C4.94531 6.125 4.55859 6.19531 4.18359 6.33594C3.80859 6.47656 3.46875 6.67578 3.16406 6.93359C2.88281 7.16797 2.63672 7.46094 2.42578 7.8125L0 11.9609V2.1875C0 1.71875 0.164063 1.32031 0.492188 0.992188C0.820312 0.664063 1.21875 0.5 1.6875 0.5H7.3125L9.5625 2.75H15.1875C15.6562 2.75 16.0547 2.91406 16.3828 3.24219C16.7109 3.57031 16.875 3.96875 16.875 4.4375V6.125H5.34375Z" fill="white"/>
</svg>
