<svg width="64" height="39" viewBox="0 0 64 39" fill="none" xmlns="http://www.w3.org/2000/svg">
<path d="M51.002 13C54.3874 13 57.2845 14.237 59.6934 16.7109C62.1673 19.1198 63.4043 22.0169 63.4043 25.4023C63.4694 28.918 62.265 31.9128 59.791 34.3867C57.3171 36.8607 54.3223 38.0651 50.8066 38C47.4212 38 44.4915 36.7956 42.0176 34.3867C39.6087 31.9128 38.4043 28.9831 38.4043 25.5977C38.4043 21.7565 39.8691 18.5664 42.7988 16.0273L41.5293 13.9766C40.2923 14.9531 39.2507 16.125 38.4043 17.4922C37.5579 18.7943 36.9395 20.194 36.5488 21.6914C36.1582 23.1237 35.9954 24.6211 36.0605 26.1836C36.1257 26.8346 35.8978 27.4206 35.377 27.9414C34.9212 28.3971 34.3678 28.625 33.7168 28.625H25.5137C24.7975 31.3594 23.3001 33.6055 21.0215 35.3633C18.8079 37.1211 16.2689 38 13.4043 38C9.88867 38 6.89388 36.763 4.41992 34.2891C2.01107 31.75 0.839193 28.7227 0.904297 25.207C0.969401 21.8867 2.17383 19.0547 4.51758 16.7109C6.86133 14.3672 9.66081 13.1302 12.916 13C14.3483 12.9349 15.6829 13.0977 16.9199 13.4883L18.0918 11.5352C17.0501 9.90755 15.4876 9.09375 13.4043 9.09375H7.93555C7.28451 9.09375 6.73112 8.86589 6.27539 8.41016C5.81966 7.95443 5.5918 7.40104 5.5918 6.75C5.5918 6.09896 5.81966 5.54557 6.27539 5.08984C6.73112 4.63411 7.28451 4.40625 7.93555 4.40625H13.4043C17.8965 4.40625 21.1517 5.70833 23.1699 8.3125H38.209L36.2559 5.1875H29.8105C29.3548 5.1875 28.9642 5.05729 28.6387 4.79688C28.3783 4.47135 28.248 4.08073 28.248 3.625V2.0625C28.248 1.60677 28.3783 1.2487 28.6387 0.988281C28.9642 0.66276 29.3548 0.5 29.8105 0.5H37.623C38.5345 0.5 39.2181 0.890625 39.6738 1.67188L41.8223 5.38281L45.5332 1.28125C45.9889 0.760417 46.5749 0.5 47.291 0.5H51.6855C52.3366 0.5 52.89 0.727865 53.3457 1.18359C53.8014 1.63932 54.0293 2.19271 54.0293 2.84375V5.96875C54.0293 6.61979 53.8014 7.17318 53.3457 7.62891C52.89 8.08464 52.3366 8.3125 51.6855 8.3125H43.6777L46.8027 13.6836C48.1699 13.2279 49.5697 13 51.002 13ZM13.4043 33.3125C14.9668 33.3125 16.3991 32.8893 17.7012 32.043C19.0033 31.1315 19.9473 29.9922 20.5332 28.625H12.623C11.7116 28.625 11.028 28.2344 10.5723 27.4531C10.1165 26.6719 10.1165 25.8906 10.5723 25.1094L14.5762 17.7852C14.2507 17.7201 13.86 17.6875 13.4043 17.6875C11.2559 17.6875 9.40039 18.4688 7.83789 20.0312C6.34049 21.5286 5.5918 23.3516 5.5918 25.5C5.5918 27.6484 6.34049 29.5039 7.83789 31.0664C9.40039 32.5638 11.2559 33.3125 13.4043 33.3125ZM58.7168 25.8906C58.847 23.6771 58.1309 21.7565 56.5684 20.1289C55.0059 18.5013 53.1178 17.6875 50.9043 17.6875C50.3835 17.6875 49.8626 17.7526 49.3418 17.8828L54.127 25.793C54.3223 26.1185 54.3548 26.5091 54.2246 26.9648C54.1595 27.3555 53.9316 27.681 53.541 27.9414L52.2715 28.7227C51.8809 28.918 51.4577 28.9831 51.002 28.918C50.6113 28.7878 50.3184 28.5273 50.123 28.1367L45.2402 20.1289C43.8079 21.6263 43.0918 23.4167 43.0918 25.5C43.0918 27.7135 43.9056 29.6016 45.5332 31.1641C47.1608 32.7266 49.0814 33.4427 51.2949 33.3125C53.3132 33.1823 55.0059 32.4336 56.373 31.0664C57.8053 29.6341 58.5866 27.9089 58.7168 25.8906Z" />
</svg>
