<svg width="14" height="19" viewBox="0 0 14 19" fill="none" xmlns="http://www.w3.org/2000/svg">
<path d="M7.875 5.03125C7.875 5.26563 7.95703 5.46484 8.12109 5.62891C8.28516 5.79297 8.48438 5.875 8.71875 5.875H13.5V17.4062C13.5 17.6406 13.418 17.8398 13.2539 18.0039C13.0898 18.168 12.8906 18.25 12.6562 18.25H0.84375C0.609375 18.25 0.410156 18.168 0.246094 18.0039C0.0820313 17.8398 0 17.6406 0 17.4062V1.09375C0 0.859375 0.0820313 0.660156 0.246094 0.496094C0.410156 0.332031 0.609375 0.25 0.84375 0.25H7.875V5.03125ZM13.5 4.53906V4.75H9V0.25H9.21094C9.44531 0.25 9.64453 0.332031 9.80859 0.496094L13.2539 3.94141C13.418 4.10547 13.5 4.30469 13.5 4.53906Z" fill="white"/>
</svg>
