<svg width="726" height="86" viewBox="0 0 726 86" fill="none" xmlns="http://www.w3.org/2000/svg">
<ellipse cx="73.3386" cy="24.0556" rx="26.4241" ry="23.0556" fill="#3EC5CC"/>
<path d="M69.9011 29.7546C70.2917 30.1452 70.9558 30.1452 71.3464 29.7546L82.8308 18.2702C83.2214 17.8796 83.2214 17.2155 82.8308 16.8249L81.4246 15.4187C81.0339 15.028 80.4089 15.028 80.0183 15.4187L70.6433 24.7937L66.2292 20.4187C65.8386 20.028 65.2136 20.028 64.823 20.4187L63.4167 21.8249C63.0261 22.2155 63.0261 22.8796 63.4167 23.2702L69.9011 29.7546Z" fill="white"/>
<line x1="100" y1="23.5" x2="198" y2="23.5" stroke="#3EC5CC"/>
<ellipse cx="224.544" cy="24.0556" rx="27.3201" ry="23.0556" fill="#CAD1D7"/>
<path d="M220.76 29.7546C221.151 30.1452 221.815 30.1452 222.205 29.7546L233.69 18.2702C234.08 17.8796 234.08 17.2155 233.69 16.8249L232.283 15.4187C231.893 15.028 231.268 15.028 230.877 15.4187L221.502 24.7937L217.088 20.4187C216.698 20.028 216.073 20.028 215.682 20.4187L214.276 21.8249C213.885 22.2155 213.885 22.8796 214.276 23.2702L220.76 29.7546Z" fill="white"/>
<line x1="256" y1="22.5" x2="354" y2="22.5" stroke="#C4C4C4"/>
<ellipse cx="380.544" cy="23.0556" rx="27.3201" ry="23.0556" fill="#CAD1D7"/>
<path d="M376.76 28.7546C377.151 29.1452 377.815 29.1452 378.205 28.7546L389.69 17.2702C390.08 16.8796 390.08 16.2155 389.69 15.8249L388.283 14.4187C387.893 14.028 387.268 14.028 386.877 14.4187L377.502 23.7937L373.088 19.4187C372.698 19.028 372.073 19.028 371.682 19.4187L370.276 20.8249C369.885 21.2155 369.885 21.8796 370.276 22.2702L376.76 28.7546Z" fill="white"/>
<line x1="407" y1="22.5" x2="505" y2="22.5" stroke="#C4C4C4"/>
<ellipse cx="531.544" cy="23.0556" rx="27.3201" ry="23.0556" fill="#CAD1D7"/>
<path d="M527.76 28.7546C528.151 29.1452 528.815 29.1452 529.205 28.7546L540.69 17.2702C541.08 16.8796 541.08 16.2155 540.69 15.8249L539.283 14.4187C538.893 14.028 538.268 14.028 537.877 14.4187L528.502 23.7937L524.088 19.4187C523.698 19.028 523.073 19.028 522.682 19.4187L521.276 20.8249C520.885 21.2155 520.885 21.8796 521.276 22.2702L527.76 28.7546Z" fill="white"/>
<line x1="548" y1="24.5" x2="646" y2="24.5" stroke="#C4C4C4"/>
<ellipse cx="672.544" cy="25.0556" rx="27.3201" ry="23.0556" fill="#CAD1D7"/>
<path d="M668.76 30.7546C669.151 31.1452 669.815 31.1452 670.205 30.7546L681.69 19.2702C682.08 18.8796 682.08 18.2155 681.69 17.8249L680.283 16.4187C679.893 16.028 679.268 16.028 678.877 16.4187L669.502 25.7937L665.088 21.4187C664.698 21.028 664.073 21.028 663.682 21.4187L662.276 22.8249C661.885 23.2155 661.885 23.8796 662.276 24.2702L668.76 30.7546Z" fill="white"/>
<path d="M168.32 72V60.625H171.531C172.521 60.625 173.396 60.8438 174.156 61.2812C174.917 61.7188 175.503 62.3411 175.914 63.1484C176.331 63.9557 176.542 64.8828 176.547 65.9297V66.6562C176.547 67.7292 176.339 68.6693 175.922 69.4766C175.51 70.2839 174.919 70.9036 174.148 71.3359C173.383 71.7682 172.49 71.9896 171.469 72H168.32ZM169.82 61.8594V70.7734H171.398C172.555 70.7734 173.453 70.4141 174.094 69.6953C174.74 68.9766 175.062 67.9531 175.062 66.625V65.9609C175.062 64.6693 174.758 63.6667 174.148 62.9531C173.544 62.2344 172.685 61.8698 171.57 61.8594H169.82ZM183.812 72C183.729 71.8333 183.661 71.5365 183.609 71.1094C182.938 71.8073 182.135 72.1562 181.203 72.1562C180.37 72.1562 179.685 71.9219 179.148 71.4531C178.617 70.9792 178.352 70.3802 178.352 69.6562C178.352 68.776 178.685 68.0938 179.352 67.6094C180.023 67.1198 180.966 66.875 182.18 66.875H183.586V66.2109C183.586 65.7057 183.435 65.3047 183.133 65.0078C182.831 64.7057 182.385 64.5547 181.797 64.5547C181.281 64.5547 180.849 64.6849 180.5 64.9453C180.151 65.2057 179.977 65.5208 179.977 65.8906H178.523C178.523 65.4688 178.672 65.0625 178.969 64.6719C179.271 64.276 179.677 63.9635 180.188 63.7344C180.703 63.5052 181.268 63.3906 181.883 63.3906C182.857 63.3906 183.62 63.6354 184.172 64.125C184.724 64.6094 185.01 65.2786 185.031 66.1328V70.0234C185.031 70.7995 185.13 71.4167 185.328 71.875V72H183.812ZM181.414 70.8984C181.867 70.8984 182.297 70.7812 182.703 70.5469C183.109 70.3125 183.404 70.0078 183.586 69.6328V67.8984H182.453C180.682 67.8984 179.797 68.4167 179.797 69.4531C179.797 69.9062 179.948 70.2604 180.25 70.5156C180.552 70.7708 180.94 70.8984 181.414 70.8984ZM186.945 67.7031C186.945 66.4062 187.253 65.3646 187.867 64.5781C188.482 63.7865 189.286 63.3906 190.281 63.3906C191.271 63.3906 192.055 63.7292 192.633 64.4062V60H194.078V72H192.75L192.68 71.0938C192.102 71.8021 191.297 72.1562 190.266 72.1562C189.286 72.1562 188.487 71.7552 187.867 70.9531C187.253 70.151 186.945 69.1042 186.945 67.8125V67.7031ZM188.391 67.8672C188.391 68.8255 188.589 69.5755 188.984 70.1172C189.38 70.6589 189.927 70.9297 190.625 70.9297C191.542 70.9297 192.211 70.5182 192.633 69.6953V65.8125C192.201 65.0156 191.536 64.6172 190.641 64.6172C189.932 64.6172 189.38 64.8906 188.984 65.4375C188.589 65.9844 188.391 66.7943 188.391 67.8672ZM195.945 67.6953C195.945 66.8672 196.107 66.1224 196.43 65.4609C196.758 64.7995 197.211 64.2891 197.789 63.9297C198.372 63.5703 199.036 63.3906 199.781 63.3906C200.932 63.3906 201.862 63.7891 202.57 64.5859C203.284 65.3828 203.641 66.4427 203.641 67.7656V67.8672C203.641 68.6901 203.482 69.4297 203.164 70.0859C202.852 70.737 202.401 71.2448 201.812 71.6094C201.229 71.974 200.557 72.1562 199.797 72.1562C198.651 72.1562 197.721 71.7578 197.008 70.9609C196.299 70.1641 195.945 69.1094 195.945 67.7969V67.6953ZM197.398 67.8672C197.398 68.8047 197.615 69.5573 198.047 70.125C198.484 70.6927 199.068 70.9766 199.797 70.9766C200.531 70.9766 201.115 70.6901 201.547 70.1172C201.979 69.5391 202.195 68.7318 202.195 67.6953C202.195 66.7682 201.974 66.0182 201.531 65.4453C201.094 64.8672 200.51 64.5781 199.781 64.5781C199.068 64.5781 198.492 64.862 198.055 65.4297C197.617 65.9974 197.398 66.8099 197.398 67.8672ZM210.375 69.7578C210.375 69.3672 210.227 69.0651 209.93 68.8516C209.638 68.6328 209.125 68.4453 208.391 68.2891C207.661 68.1328 207.081 67.9453 206.648 67.7266C206.221 67.5078 205.904 67.2474 205.695 66.9453C205.492 66.6432 205.391 66.2839 205.391 65.8672C205.391 65.1745 205.682 64.5885 206.266 64.1094C206.854 63.6302 207.604 63.3906 208.516 63.3906C209.474 63.3906 210.25 63.638 210.844 64.1328C211.443 64.6276 211.742 65.2604 211.742 66.0312H210.289C210.289 65.6354 210.12 65.2943 209.781 65.0078C209.448 64.7214 209.026 64.5781 208.516 64.5781C207.99 64.5781 207.578 64.6927 207.281 64.9219C206.984 65.151 206.836 65.4505 206.836 65.8203C206.836 66.1693 206.974 66.4323 207.25 66.6094C207.526 66.7865 208.023 66.9557 208.742 67.1172C209.466 67.2786 210.052 67.4714 210.5 67.6953C210.948 67.9193 211.279 68.1901 211.492 68.5078C211.711 68.8203 211.82 69.2031 211.82 69.6562C211.82 70.4115 211.518 71.0182 210.914 71.4766C210.31 71.9297 209.526 72.1562 208.562 72.1562C207.885 72.1562 207.286 72.0365 206.766 71.7969C206.245 71.5573 205.836 71.224 205.539 70.7969C205.247 70.3646 205.102 69.8984 205.102 69.3984H206.547C206.573 69.8828 206.766 70.2682 207.125 70.5547C207.49 70.8359 207.969 70.9766 208.562 70.9766C209.109 70.9766 209.547 70.8672 209.875 70.6484C210.208 70.4245 210.375 70.1276 210.375 69.7578ZM217.32 67.7031C217.32 66.4062 217.628 65.3646 218.242 64.5781C218.857 63.7865 219.661 63.3906 220.656 63.3906C221.646 63.3906 222.43 63.7292 223.008 64.4062V60H224.453V72H223.125L223.055 71.0938C222.477 71.8021 221.672 72.1562 220.641 72.1562C219.661 72.1562 218.862 71.7552 218.242 70.9531C217.628 70.151 217.32 69.1042 217.32 67.8125V67.7031ZM218.766 67.8672C218.766 68.8255 218.964 69.5755 219.359 70.1172C219.755 70.6589 220.302 70.9297 221 70.9297C221.917 70.9297 222.586 70.5182 223.008 69.6953V65.8125C222.576 65.0156 221.911 64.6172 221.016 64.6172C220.307 64.6172 219.755 64.8906 219.359 65.4375C218.964 65.9844 218.766 66.7943 218.766 67.8672ZM226.32 67.6953C226.32 66.8672 226.482 66.1224 226.805 65.4609C227.133 64.7995 227.586 64.2891 228.164 63.9297C228.747 63.5703 229.411 63.3906 230.156 63.3906C231.307 63.3906 232.237 63.7891 232.945 64.5859C233.659 65.3828 234.016 66.4427 234.016 67.7656V67.8672C234.016 68.6901 233.857 69.4297 233.539 70.0859C233.227 70.737 232.776 71.2448 232.188 71.6094C231.604 71.974 230.932 72.1562 230.172 72.1562C229.026 72.1562 228.096 71.7578 227.383 70.9609C226.674 70.1641 226.32 69.1094 226.32 67.7969V67.6953ZM227.773 67.8672C227.773 68.8047 227.99 69.5573 228.422 70.125C228.859 70.6927 229.443 70.9766 230.172 70.9766C230.906 70.9766 231.49 70.6901 231.922 70.1172C232.354 69.5391 232.57 68.7318 232.57 67.6953C232.57 66.7682 232.349 66.0182 231.906 65.4453C231.469 64.8672 230.885 64.5781 230.156 64.5781C229.443 64.5781 228.867 64.862 228.43 65.4297C227.992 65.9974 227.773 66.8099 227.773 67.8672ZM240.023 72V60.625H243.742C244.977 60.625 245.904 60.8802 246.523 61.3906C247.148 61.901 247.461 62.6562 247.461 63.6562C247.461 64.1875 247.31 64.6589 247.008 65.0703C246.706 65.4766 246.294 65.7917 245.773 66.0156C246.388 66.1875 246.872 66.5156 247.227 67C247.586 67.4792 247.766 68.0521 247.766 68.7188C247.766 69.7396 247.435 70.5417 246.773 71.125C246.112 71.7083 245.177 72 243.969 72H240.023ZM241.523 66.6797V70.7734H244C244.698 70.7734 245.247 70.5938 245.648 70.2344C246.055 69.8698 246.258 69.3698 246.258 68.7344C246.258 67.3646 245.513 66.6797 244.023 66.6797H241.523ZM241.523 65.4766H243.789C244.445 65.4766 244.969 65.3125 245.359 64.9844C245.755 64.6562 245.953 64.2109 245.953 63.6484C245.953 63.0234 245.771 62.5703 245.406 62.2891C245.042 62.0026 244.487 61.8594 243.742 61.8594H241.523V65.4766ZM254.984 72C254.901 71.8333 254.833 71.5365 254.781 71.1094C254.109 71.8073 253.307 72.1562 252.375 72.1562C251.542 72.1562 250.857 71.9219 250.32 71.4531C249.789 70.9792 249.523 70.3802 249.523 69.6562C249.523 68.776 249.857 68.0938 250.523 67.6094C251.195 67.1198 252.138 66.875 253.352 66.875H254.758V66.2109C254.758 65.7057 254.607 65.3047 254.305 65.0078C254.003 64.7057 253.557 64.5547 252.969 64.5547C252.453 64.5547 252.021 64.6849 251.672 64.9453C251.323 65.2057 251.148 65.5208 251.148 65.8906H249.695C249.695 65.4688 249.844 65.0625 250.141 64.6719C250.443 64.276 250.849 63.9635 251.359 63.7344C251.875 63.5052 252.44 63.3906 253.055 63.3906C254.029 63.3906 254.792 63.6354 255.344 64.125C255.896 64.6094 256.182 65.2786 256.203 66.1328V70.0234C256.203 70.7995 256.302 71.4167 256.5 71.875V72H254.984ZM252.586 70.8984C253.039 70.8984 253.469 70.7812 253.875 70.5469C254.281 70.3125 254.576 70.0078 254.758 69.6328V67.8984H253.625C251.854 67.8984 250.969 68.4167 250.969 69.4531C250.969 69.9062 251.12 70.2604 251.422 70.5156C251.724 70.7708 252.112 70.8984 252.586 70.8984ZM253.922 60H255.672L253.578 62.2969H252.414L253.922 60ZM263.391 69.7578C263.391 69.3672 263.242 69.0651 262.945 68.8516C262.654 68.6328 262.141 68.4453 261.406 68.2891C260.677 68.1328 260.096 67.9453 259.664 67.7266C259.237 67.5078 258.919 67.2474 258.711 66.9453C258.508 66.6432 258.406 66.2839 258.406 65.8672C258.406 65.1745 258.698 64.5885 259.281 64.1094C259.87 63.6302 260.62 63.3906 261.531 63.3906C262.49 63.3906 263.266 63.638 263.859 64.1328C264.458 64.6276 264.758 65.2604 264.758 66.0312H263.305C263.305 65.6354 263.135 65.2943 262.797 65.0078C262.464 64.7214 262.042 64.5781 261.531 64.5781C261.005 64.5781 260.594 64.6927 260.297 64.9219C260 65.151 259.852 65.4505 259.852 65.8203C259.852 66.1693 259.99 66.4323 260.266 66.6094C260.542 66.7865 261.039 66.9557 261.758 67.1172C262.482 67.2786 263.068 67.4714 263.516 67.6953C263.964 67.9193 264.294 68.1901 264.508 68.5078C264.727 68.8203 264.836 69.2031 264.836 69.6562C264.836 70.4115 264.534 71.0182 263.93 71.4766C263.326 71.9297 262.542 72.1562 261.578 72.1562C260.901 72.1562 260.302 72.0365 259.781 71.7969C259.26 71.5573 258.852 71.224 258.555 70.7969C258.263 70.3646 258.117 69.8984 258.117 69.3984H259.562C259.589 69.8828 259.781 70.2682 260.141 70.5547C260.505 70.8359 260.984 70.9766 261.578 70.9766C262.125 70.9766 262.562 70.8672 262.891 70.6484C263.224 70.4245 263.391 70.1276 263.391 69.7578ZM268.289 72H266.844V63.5469H268.289V72ZM266.727 61.3047C266.727 61.0703 266.797 60.8724 266.938 60.7109C267.083 60.5495 267.297 60.4688 267.578 60.4688C267.859 60.4688 268.073 60.5495 268.219 60.7109C268.365 60.8724 268.438 61.0703 268.438 61.3047C268.438 61.5391 268.365 61.7344 268.219 61.8906C268.073 62.0469 267.859 62.125 267.578 62.125C267.297 62.125 267.083 62.0469 266.938 61.8906C266.797 61.7344 266.727 61.5391 266.727 61.3047ZM274 70.9766C274.516 70.9766 274.966 70.8203 275.352 70.5078C275.737 70.1953 275.951 69.8047 275.992 69.3359H277.359C277.333 69.8203 277.167 70.2812 276.859 70.7188C276.552 71.1562 276.141 71.5052 275.625 71.7656C275.115 72.026 274.573 72.1562 274 72.1562C272.849 72.1562 271.932 71.7734 271.25 71.0078C270.573 70.237 270.234 69.1849 270.234 67.8516V67.6094C270.234 66.7865 270.385 66.0547 270.688 65.4141C270.99 64.7734 271.422 64.276 271.984 63.9219C272.552 63.5677 273.221 63.3906 273.992 63.3906C274.94 63.3906 275.727 63.6745 276.352 64.2422C276.982 64.8099 277.318 65.5469 277.359 66.4531H275.992C275.951 65.9062 275.742 65.4583 275.367 65.1094C274.997 64.7552 274.539 64.5781 273.992 64.5781C273.258 64.5781 272.688 64.8438 272.281 65.375C271.88 65.901 271.68 66.6641 271.68 67.6641V67.9375C271.68 68.9115 271.88 69.6615 272.281 70.1875C272.682 70.7135 273.255 70.9766 274 70.9766ZM278.602 67.6953C278.602 66.8672 278.763 66.1224 279.086 65.4609C279.414 64.7995 279.867 64.2891 280.445 63.9297C281.029 63.5703 281.693 63.3906 282.438 63.3906C283.589 63.3906 284.518 63.7891 285.227 64.5859C285.94 65.3828 286.297 66.4427 286.297 67.7656V67.8672C286.297 68.6901 286.138 69.4297 285.82 70.0859C285.508 70.737 285.057 71.2448 284.469 71.6094C283.885 71.974 283.214 72.1562 282.453 72.1562C281.307 72.1562 280.378 71.7578 279.664 70.9609C278.956 70.1641 278.602 69.1094 278.602 67.7969V67.6953ZM280.055 67.8672C280.055 68.8047 280.271 69.5573 280.703 70.125C281.141 70.6927 281.724 70.9766 282.453 70.9766C283.188 70.9766 283.771 70.6901 284.203 70.1172C284.635 69.5391 284.852 68.7318 284.852 67.6953C284.852 66.7682 284.63 66.0182 284.188 65.4453C283.75 64.8672 283.167 64.5781 282.438 64.5781C281.724 64.5781 281.148 64.862 280.711 65.4297C280.273 65.9974 280.055 66.8099 280.055 67.8672ZM293.031 69.7578C293.031 69.3672 292.883 69.0651 292.586 68.8516C292.294 68.6328 291.781 68.4453 291.047 68.2891C290.318 68.1328 289.737 67.9453 289.305 67.7266C288.878 67.5078 288.56 67.2474 288.352 66.9453C288.148 66.6432 288.047 66.2839 288.047 65.8672C288.047 65.1745 288.339 64.5885 288.922 64.1094C289.51 63.6302 290.26 63.3906 291.172 63.3906C292.13 63.3906 292.906 63.638 293.5 64.1328C294.099 64.6276 294.398 65.2604 294.398 66.0312H292.945C292.945 65.6354 292.776 65.2943 292.438 65.0078C292.104 64.7214 291.682 64.5781 291.172 64.5781C290.646 64.5781 290.234 64.6927 289.938 64.9219C289.641 65.151 289.492 65.4505 289.492 65.8203C289.492 66.1693 289.63 66.4323 289.906 66.6094C290.182 66.7865 290.68 66.9557 291.398 67.1172C292.122 67.2786 292.708 67.4714 293.156 67.6953C293.604 67.9193 293.935 68.1901 294.148 68.5078C294.367 68.8203 294.477 69.2031 294.477 69.6562C294.477 70.4115 294.174 71.0182 293.57 71.4766C292.966 71.9297 292.182 72.1562 291.219 72.1562C290.542 72.1562 289.943 72.0365 289.422 71.7969C288.901 71.5573 288.492 71.224 288.195 70.7969C287.904 70.3646 287.758 69.8984 287.758 69.3984H289.203C289.229 69.8828 289.422 70.2682 289.781 70.5547C290.146 70.8359 290.625 70.9766 291.219 70.9766C291.766 70.9766 292.203 70.8672 292.531 70.6484C292.865 70.4245 293.031 70.1276 293.031 69.7578Z" fill="#C4C4C4"/>
<path d="M367.82 68.5469V73H366.32V61.625H370.516C371.76 61.625 372.734 61.9427 373.438 62.5781C374.146 63.2135 374.5 64.0547 374.5 65.1016C374.5 66.2057 374.154 67.0573 373.461 67.6562C372.773 68.25 371.786 68.5469 370.5 68.5469H367.82ZM367.82 67.3203H370.516C371.318 67.3203 371.932 67.1328 372.359 66.7578C372.786 66.3776 373 65.8307 373 65.1172C373 64.4401 372.786 63.8984 372.359 63.4922C371.932 63.0859 371.346 62.875 370.602 62.8594H367.82V67.3203ZM379.586 73.1562C378.44 73.1562 377.508 72.7812 376.789 72.0312C376.07 71.276 375.711 70.2682 375.711 69.0078V68.7422C375.711 67.9036 375.87 67.1562 376.188 66.5C376.51 65.8385 376.958 65.3229 377.531 64.9531C378.109 64.5781 378.734 64.3906 379.406 64.3906C380.505 64.3906 381.359 64.7526 381.969 65.4766C382.578 66.2005 382.883 67.237 382.883 68.5859V69.1875H377.156C377.177 70.0208 377.419 70.6953 377.883 71.2109C378.352 71.7214 378.945 71.9766 379.664 71.9766C380.174 71.9766 380.607 71.8724 380.961 71.6641C381.315 71.4557 381.625 71.1797 381.891 70.8359L382.773 71.5234C382.065 72.612 381.003 73.1562 379.586 73.1562ZM379.406 65.5781C378.823 65.5781 378.333 65.7917 377.938 66.2188C377.542 66.6406 377.297 67.2344 377.203 68H381.438V67.8906C381.396 67.1562 381.198 66.5885 380.844 66.1875C380.49 65.7812 380.01 65.5781 379.406 65.5781ZM387.953 71.9766C388.469 71.9766 388.919 71.8203 389.305 71.5078C389.69 71.1953 389.904 70.8047 389.945 70.3359H391.312C391.286 70.8203 391.12 71.2812 390.812 71.7188C390.505 72.1562 390.094 72.5052 389.578 72.7656C389.068 73.026 388.526 73.1562 387.953 73.1562C386.802 73.1562 385.885 72.7734 385.203 72.0078C384.526 71.237 384.188 70.1849 384.188 68.8516V68.6094C384.188 67.7865 384.339 67.0547 384.641 66.4141C384.943 65.7734 385.375 65.276 385.938 64.9219C386.505 64.5677 387.174 64.3906 387.945 64.3906C388.893 64.3906 389.68 64.6745 390.305 65.2422C390.935 65.8099 391.271 66.5469 391.312 67.4531H389.945C389.904 66.9062 389.695 66.4583 389.32 66.1094C388.951 65.7552 388.492 65.5781 387.945 65.5781C387.211 65.5781 386.641 65.8438 386.234 66.375C385.833 66.901 385.633 67.6641 385.633 68.6641V68.9375C385.633 69.9115 385.833 70.6615 386.234 71.1875C386.635 71.7135 387.208 71.9766 387.953 71.9766ZM388.188 73.0703L388.094 73.4766C388.891 73.6172 389.289 74.0677 389.289 74.8281C389.289 75.3333 389.081 75.7318 388.664 76.0234C388.247 76.3203 387.667 76.4688 386.922 76.4688L386.867 75.6328C387.279 75.6328 387.596 75.5651 387.82 75.4297C388.049 75.2943 388.164 75.1042 388.164 74.8594C388.164 74.6302 388.081 74.4609 387.914 74.3516C387.747 74.2422 387.409 74.1641 386.898 74.1172L387.148 73.0703H388.188ZM398.156 73C398.073 72.8333 398.005 72.5365 397.953 72.1094C397.281 72.8073 396.479 73.1562 395.547 73.1562C394.714 73.1562 394.029 72.9219 393.492 72.4531C392.961 71.9792 392.695 71.3802 392.695 70.6562C392.695 69.776 393.029 69.0938 393.695 68.6094C394.367 68.1198 395.31 67.875 396.523 67.875H397.93V67.2109C397.93 66.7057 397.779 66.3047 397.477 66.0078C397.174 65.7057 396.729 65.5547 396.141 65.5547C395.625 65.5547 395.193 65.6849 394.844 65.9453C394.495 66.2057 394.32 66.5208 394.32 66.8906H392.867C392.867 66.4688 393.016 66.0625 393.312 65.6719C393.615 65.276 394.021 64.9635 394.531 64.7344C395.047 64.5052 395.612 64.3906 396.227 64.3906C397.201 64.3906 397.964 64.6354 398.516 65.125C399.068 65.6094 399.354 66.2786 399.375 67.1328V71.0234C399.375 71.7995 399.474 72.4167 399.672 72.875V73H398.156ZM395.758 71.8984C396.211 71.8984 396.641 71.7812 397.047 71.5469C397.453 71.3125 397.747 71.0078 397.93 70.6328V68.8984H396.797C395.026 68.8984 394.141 69.4167 394.141 70.4531C394.141 70.9062 394.292 71.2604 394.594 71.5156C394.896 71.7708 395.284 71.8984 395.758 71.8984Z" fill="#C4C4C4"/>
<path d="M518.75 65.7422H513.82V69.7734H519.547V71H512.32V59.625H519.469V60.8594H513.82V64.5156H518.75V65.7422ZM524.023 65.6328L525.898 62.5469H527.586L524.82 66.7266L527.672 71H526L524.047 67.8359L522.094 71H520.414L523.266 66.7266L520.5 62.5469H522.172L524.023 65.6328ZM534.344 71C534.26 70.8333 534.193 70.5365 534.141 70.1094C533.469 70.8073 532.667 71.1562 531.734 71.1562C530.901 71.1562 530.216 70.9219 529.68 70.4531C529.148 69.9792 528.883 69.3802 528.883 68.6562C528.883 67.776 529.216 67.0938 529.883 66.6094C530.555 66.1198 531.497 65.875 532.711 65.875H534.117V65.2109C534.117 64.7057 533.966 64.3047 533.664 64.0078C533.362 63.7057 532.917 63.5547 532.328 63.5547C531.812 63.5547 531.38 63.6849 531.031 63.9453C530.682 64.2057 530.508 64.5208 530.508 64.8906H529.055C529.055 64.4688 529.203 64.0625 529.5 63.6719C529.802 63.276 530.208 62.9635 530.719 62.7344C531.234 62.5052 531.799 62.3906 532.414 62.3906C533.388 62.3906 534.151 62.6354 534.703 63.125C535.255 63.6094 535.542 64.2786 535.562 65.1328V69.0234C535.562 69.7995 535.661 70.4167 535.859 70.875V71H534.344ZM531.945 69.8984C532.398 69.8984 532.828 69.7812 533.234 69.5469C533.641 69.3125 533.935 69.0078 534.117 68.6328V66.8984H532.984C531.214 66.8984 530.328 67.4167 530.328 68.4531C530.328 68.9062 530.479 69.2604 530.781 69.5156C531.083 69.7708 531.471 69.8984 531.945 69.8984ZM539.188 62.5469L539.227 63.4844C539.846 62.7552 540.682 62.3906 541.734 62.3906C542.917 62.3906 543.721 62.8438 544.148 63.75C544.43 63.3438 544.794 63.0156 545.242 62.7656C545.695 62.5156 546.229 62.3906 546.844 62.3906C548.698 62.3906 549.641 63.3724 549.672 65.3359V71H548.227V65.4219C548.227 64.8177 548.089 64.3672 547.812 64.0703C547.536 63.7682 547.073 63.6172 546.422 63.6172C545.885 63.6172 545.44 63.7786 545.086 64.1016C544.732 64.4193 544.526 64.849 544.469 65.3906V71H543.016V65.4609C543.016 64.2318 542.414 63.6172 541.211 63.6172C540.263 63.6172 539.615 64.0208 539.266 64.8281V71H537.82V62.5469H539.188ZM555.367 71.1562C554.221 71.1562 553.289 70.7812 552.57 70.0312C551.852 69.276 551.492 68.2682 551.492 67.0078V66.7422C551.492 65.9036 551.651 65.1562 551.969 64.5C552.292 63.8385 552.74 63.3229 553.312 62.9531C553.891 62.5781 554.516 62.3906 555.188 62.3906C556.286 62.3906 557.141 62.7526 557.75 63.4766C558.359 64.2005 558.664 65.237 558.664 66.5859V67.1875H552.938C552.958 68.0208 553.201 68.6953 553.664 69.2109C554.133 69.7214 554.727 69.9766 555.445 69.9766C555.956 69.9766 556.388 69.8724 556.742 69.6641C557.096 69.4557 557.406 69.1797 557.672 68.8359L558.555 69.5234C557.846 70.612 556.784 71.1562 555.367 71.1562ZM555.188 63.5781C554.604 63.5781 554.115 63.7917 553.719 64.2188C553.323 64.6406 553.078 65.2344 552.984 66H557.219V65.8906C557.177 65.1562 556.979 64.5885 556.625 64.1875C556.271 63.7812 555.792 63.5781 555.188 63.5781Z" fill="#C4C4C4"/>
<path d="M648.688 68.3906C648.547 69.5938 648.102 70.5234 647.352 71.1797C646.607 71.8307 645.615 72.1562 644.375 72.1562C643.031 72.1562 641.953 71.6745 641.141 70.7109C640.333 69.7474 639.93 68.4583 639.93 66.8438V65.75C639.93 64.6927 640.117 63.763 640.492 62.9609C640.872 62.1589 641.409 61.5443 642.102 61.1172C642.794 60.6849 643.596 60.4688 644.508 60.4688C645.716 60.4688 646.685 60.8073 647.414 61.4844C648.143 62.1562 648.568 63.0885 648.688 64.2812H647.18C647.049 63.375 646.766 62.7188 646.328 62.3125C645.896 61.9062 645.289 61.7031 644.508 61.7031C643.549 61.7031 642.797 62.0573 642.25 62.7656C641.708 63.474 641.438 64.4818 641.438 65.7891V66.8906C641.438 68.125 641.695 69.1068 642.211 69.8359C642.727 70.5651 643.448 70.9297 644.375 70.9297C645.208 70.9297 645.846 70.7422 646.289 70.3672C646.737 69.987 647.034 69.3281 647.18 68.3906H648.688ZM650.133 67.6953C650.133 66.8672 650.294 66.1224 650.617 65.4609C650.945 64.7995 651.398 64.2891 651.977 63.9297C652.56 63.5703 653.224 63.3906 653.969 63.3906C655.12 63.3906 656.049 63.7891 656.758 64.5859C657.471 65.3828 657.828 66.4427 657.828 67.7656V67.8672C657.828 68.6901 657.669 69.4297 657.352 70.0859C657.039 70.737 656.589 71.2448 656 71.6094C655.417 71.974 654.745 72.1562 653.984 72.1562C652.839 72.1562 651.909 71.7578 651.195 70.9609C650.487 70.1641 650.133 69.1094 650.133 67.7969V67.6953ZM651.586 67.8672C651.586 68.8047 651.802 69.5573 652.234 70.125C652.672 70.6927 653.255 70.9766 653.984 70.9766C654.719 70.9766 655.302 70.6901 655.734 70.1172C656.167 69.5391 656.383 68.7318 656.383 67.6953C656.383 66.7682 656.161 66.0182 655.719 65.4453C655.281 64.8672 654.698 64.5781 653.969 64.5781C653.255 64.5781 652.68 64.862 652.242 65.4297C651.805 65.9974 651.586 66.8099 651.586 67.8672ZM661.008 63.5469L661.055 64.6094C661.701 63.7969 662.544 63.3906 663.586 63.3906C665.372 63.3906 666.273 64.3984 666.289 66.4141V72H664.844V66.4062C664.839 65.7969 664.698 65.3464 664.422 65.0547C664.151 64.763 663.727 64.6172 663.148 64.6172C662.68 64.6172 662.268 64.7422 661.914 64.9922C661.56 65.2422 661.284 65.5703 661.086 65.9766V72H659.641V63.5469H661.008ZM668.953 72V64.6641H667.617V63.5469H668.953V62.8281C668.953 61.8854 669.221 61.151 669.758 60.625C670.299 60.099 671.062 59.8359 672.047 59.8359C672.63 59.8359 673.367 59.9948 674.258 60.3125L674.016 61.5312C673.365 61.2708 672.745 61.1406 672.156 61.1406C671.536 61.1406 671.089 61.2812 670.812 61.5625C670.542 61.8385 670.406 62.2552 670.406 62.8125V63.5469H672.133V64.6641H670.406V72H668.953ZM674.977 72H673.523V63.5469H674.977V72ZM681.414 64.8438C681.195 64.8073 680.958 64.7891 680.703 64.7891C679.755 64.7891 679.112 65.1927 678.773 66V72H677.328V63.5469H678.734L678.758 64.5234C679.232 63.7682 679.904 63.3906 680.773 63.3906C681.055 63.3906 681.268 63.4271 681.414 63.5V64.8438ZM684.109 63.5469L684.148 64.4844C684.768 63.7552 685.604 63.3906 686.656 63.3906C687.839 63.3906 688.643 63.8438 689.07 64.75C689.352 64.3438 689.716 64.0156 690.164 63.7656C690.617 63.5156 691.151 63.3906 691.766 63.3906C693.62 63.3906 694.562 64.3724 694.594 66.3359V72H693.148V66.4219C693.148 65.8177 693.01 65.3672 692.734 65.0703C692.458 64.7682 691.995 64.6172 691.344 64.6172C690.807 64.6172 690.362 64.7786 690.008 65.1016C689.654 65.4193 689.448 65.849 689.391 66.3906V72H687.938V66.4609C687.938 65.2318 687.336 64.6172 686.133 64.6172C685.185 64.6172 684.536 65.0208 684.188 65.8281V72H682.742V63.5469H684.109ZM702 72C701.917 71.8333 701.849 71.5365 701.797 71.1094C701.125 71.8073 700.323 72.1562 699.391 72.1562C698.557 72.1562 697.872 71.9219 697.336 71.4531C696.805 70.9792 696.539 70.3802 696.539 69.6562C696.539 68.776 696.872 68.0938 697.539 67.6094C698.211 67.1198 699.154 66.875 700.367 66.875H701.773V66.2109C701.773 65.7057 701.622 65.3047 701.32 65.0078C701.018 64.7057 700.573 64.5547 699.984 64.5547C699.469 64.5547 699.036 64.6849 698.688 64.9453C698.339 65.2057 698.164 65.5208 698.164 65.8906H696.711C696.711 65.4688 696.859 65.0625 697.156 64.6719C697.458 64.276 697.865 63.9635 698.375 63.7344C698.891 63.5052 699.456 63.3906 700.07 63.3906C701.044 63.3906 701.807 63.6354 702.359 64.125C702.911 64.6094 703.198 65.2786 703.219 66.1328V70.0234C703.219 70.7995 703.318 71.4167 703.516 71.875V72H702ZM699.602 70.8984C700.055 70.8984 700.484 70.7812 700.891 70.5469C701.297 70.3125 701.591 70.0078 701.773 69.6328V67.8984H700.641C698.87 67.8984 697.984 68.4167 697.984 69.4531C697.984 69.9062 698.135 70.2604 698.438 70.5156C698.74 70.7708 699.128 70.8984 699.602 70.8984ZM709.57 64.8438C709.352 64.8073 709.115 64.7891 708.859 64.7891C707.911 64.7891 707.268 65.1927 706.93 66V72H705.484V63.5469H706.891L706.914 64.5234C707.388 63.7682 708.06 63.3906 708.93 63.3906C709.211 63.3906 709.424 63.4271 709.57 63.5V64.8438Z" fill="#C4C4C4"/>
<path d="M2.92969 71.3333H1.42969V59.9583H2.92969V71.3333ZM6.82031 62.8802L6.86719 63.9427C7.51302 63.1302 8.35677 62.724 9.39844 62.724C11.1849 62.724 12.0859 63.7318 12.1016 65.7474V71.3333H10.6562V65.7396C10.651 65.1302 10.5104 64.6797 10.2344 64.388C9.96354 64.0963 9.53906 63.9505 8.96094 63.9505C8.49219 63.9505 8.08073 64.0755 7.72656 64.3255C7.3724 64.5755 7.09635 64.9036 6.89844 65.3099V71.3333H5.45312V62.8802H6.82031ZM14.9922 71.3333V63.9974H13.6562V62.8802H14.9922V62.013C14.9922 61.1068 15.2344 60.4062 15.7188 59.9115C16.2031 59.4167 16.888 59.1693 17.7734 59.1693C18.1068 59.1693 18.4375 59.2135 18.7656 59.3021L18.6875 60.474C18.4427 60.4271 18.1823 60.4036 17.9062 60.4036C17.4375 60.4036 17.0755 60.5417 16.8203 60.8177C16.5651 61.0885 16.4375 61.4792 16.4375 61.9896V62.8802H18.2422V63.9974H16.4375V71.3333H14.9922ZM19.4609 67.0286C19.4609 66.2005 19.6224 65.4557 19.9453 64.7943C20.2734 64.1328 20.7266 63.6224 21.3047 63.263C21.888 62.9036 22.5521 62.724 23.2969 62.724C24.4479 62.724 25.3776 63.1224 26.0859 63.9193C26.7995 64.7161 27.1562 65.776 27.1562 67.099V67.2005C27.1562 68.0234 26.9974 68.763 26.6797 69.4193C26.3672 70.0703 25.9167 70.5781 25.3281 70.9427C24.7448 71.3073 24.0729 71.4896 23.3125 71.4896C22.1667 71.4896 21.237 71.0911 20.5234 70.2943C19.8151 69.4974 19.4609 68.4427 19.4609 67.1302V67.0286ZM20.9141 67.2005C20.9141 68.138 21.1302 68.8906 21.5625 69.4583C22 70.026 22.5833 70.3099 23.3125 70.3099C24.0469 70.3099 24.6302 70.0234 25.0625 69.4505C25.4948 68.8724 25.7109 68.0651 25.7109 67.0286C25.7109 66.1016 25.4896 65.3516 25.0469 64.7786C24.6094 64.2005 24.026 63.9115 23.2969 63.9115C22.5833 63.9115 22.0078 64.1953 21.5703 64.763C21.1328 65.3307 20.9141 66.1432 20.9141 67.2005ZM33.0547 64.1771C32.8359 64.1406 32.599 64.1224 32.3438 64.1224C31.3958 64.1224 30.7526 64.526 30.4141 65.3333V71.3333H28.9688V62.8802H30.375L30.3984 63.8568C30.8724 63.1016 31.5443 62.724 32.4141 62.724C32.6953 62.724 32.9089 62.7604 33.0547 62.8333V64.1771ZM35.75 62.8802L35.7891 63.8177C36.4089 63.0885 37.2448 62.724 38.2969 62.724C39.4792 62.724 40.2839 63.1771 40.7109 64.0833C40.9922 63.6771 41.3568 63.349 41.8047 63.099C42.2578 62.849 42.7917 62.724 43.4062 62.724C45.2604 62.724 46.2031 63.7057 46.2344 65.6693V71.3333H44.7891V65.7552C44.7891 65.151 44.651 64.7005 44.375 64.4036C44.099 64.1016 43.6354 63.9505 42.9844 63.9505C42.4479 63.9505 42.0026 64.112 41.6484 64.4349C41.2943 64.7526 41.0885 65.1823 41.0312 65.724V71.3333H39.5781V65.7943C39.5781 64.5651 38.9766 63.9505 37.7734 63.9505C36.8255 63.9505 36.1771 64.3542 35.8281 65.1615V71.3333H34.3828V62.8802H35.75ZM53.6406 71.3333C53.5573 71.1667 53.4896 70.8698 53.4375 70.4427C52.7656 71.1406 51.9635 71.4896 51.0312 71.4896C50.1979 71.4896 49.513 71.2552 48.9766 70.7865C48.4453 70.3125 48.1797 69.7135 48.1797 68.9896C48.1797 68.1094 48.513 67.4271 49.1797 66.9427C49.8516 66.4531 50.7943 66.2083 52.0078 66.2083H53.4141V65.5443C53.4141 65.0391 53.263 64.638 52.9609 64.3411C52.6589 64.0391 52.2135 63.888 51.625 63.888C51.1094 63.888 50.6771 64.0182 50.3281 64.2786C49.9792 64.5391 49.8047 64.8542 49.8047 65.224H48.3516C48.3516 64.8021 48.5 64.3958 48.7969 64.0052C49.099 63.6094 49.5052 63.2969 50.0156 63.0677C50.5312 62.8385 51.0964 62.724 51.7109 62.724C52.6849 62.724 53.4479 62.9687 54 63.4583C54.5521 63.9427 54.8385 64.612 54.8594 65.4661V69.3568C54.8594 70.1328 54.9583 70.75 55.1562 71.2083V71.3333H53.6406ZM51.2422 70.2318C51.6953 70.2318 52.125 70.1146 52.5312 69.8802C52.9375 69.6458 53.2318 69.3411 53.4141 68.9661V67.2318H52.2812C50.5104 67.2318 49.625 67.75 49.625 68.7865C49.625 69.2396 49.776 69.5937 50.0781 69.849C50.3802 70.1042 50.7682 70.2318 51.2422 70.2318ZM60.5156 70.3099C61.0312 70.3099 61.4818 70.1536 61.8672 69.8411C62.2526 69.5286 62.4661 69.138 62.5078 68.6693H63.875C63.849 69.1536 63.6823 69.6146 63.375 70.0521C63.0677 70.4896 62.6562 70.8385 62.1406 71.099C61.6302 71.3594 61.0885 71.4896 60.5156 71.4896C59.3646 71.4896 58.4479 71.1068 57.7656 70.3411C57.0885 69.5703 56.75 68.5182 56.75 67.1849V66.9427C56.75 66.1198 56.901 65.388 57.2031 64.7474C57.5052 64.1068 57.9375 63.6094 58.5 63.2552C59.0677 62.901 59.737 62.724 60.5078 62.724C61.4557 62.724 62.2422 63.0078 62.8672 63.5755C63.4974 64.1432 63.8333 64.8802 63.875 65.7865H62.5078C62.4661 65.2396 62.2578 64.7917 61.8828 64.4427C61.513 64.0885 61.0547 63.9115 60.5078 63.9115C59.7734 63.9115 59.2031 64.1771 58.7969 64.7083C58.3958 65.2344 58.1953 65.9974 58.1953 66.9974V67.2708C58.1953 68.2448 58.3958 68.9948 58.7969 69.5208C59.1979 70.0469 59.7708 70.3099 60.5156 70.3099ZM60.75 71.4036L60.6562 71.8099C61.4531 71.9505 61.8516 72.401 61.8516 73.1615C61.8516 73.6667 61.6432 74.0651 61.2266 74.3568C60.8099 74.6536 60.2292 74.8021 59.4844 74.8021L59.4297 73.9661C59.8411 73.9661 60.1589 73.8984 60.3828 73.763C60.612 73.6276 60.7266 73.4375 60.7266 73.1927C60.7266 72.9635 60.6432 72.7943 60.4766 72.6849C60.3099 72.5755 59.9714 72.4974 59.4609 72.4505L59.7109 71.4036H60.75ZM65.1172 67.0286C65.1172 66.2005 65.2786 65.4557 65.6016 64.7943C65.9297 64.1328 66.3828 63.6224 66.9609 63.263C67.5443 62.9036 68.2083 62.724 68.9531 62.724C70.1042 62.724 71.0339 63.1224 71.7422 63.9193C72.4557 64.7161 72.8125 65.776 72.8125 67.099V67.2005C72.8125 68.0234 72.6536 68.763 72.3359 69.4193C72.0234 70.0703 71.5729 70.5781 70.9844 70.9427C70.401 71.3073 69.7292 71.4896 68.9688 71.4896C67.8229 71.4896 66.8932 71.0911 66.1797 70.2943C65.4714 69.4974 65.1172 68.4427 65.1172 67.1302V67.0286ZM66.5703 67.2005C66.5703 68.138 66.7865 68.8906 67.2188 69.4583C67.6562 70.026 68.2396 70.3099 68.9688 70.3099C69.7031 70.3099 70.2865 70.0234 70.7188 69.4505C71.151 68.8724 71.3672 68.0651 71.3672 67.0286C71.3672 66.1016 71.1458 65.3516 70.7031 64.7786C70.2656 64.2005 69.6823 63.9115 68.9531 63.9115C68.2396 63.9115 67.6641 64.1953 67.2266 64.763C66.7891 65.3307 66.5703 66.1432 66.5703 67.2005ZM71.6719 59.5833C71.6719 60.1458 71.5104 60.6016 71.1875 60.9505C70.8698 61.2995 70.4714 61.474 69.9922 61.474C69.7786 61.474 69.5938 61.4479 69.4375 61.3958C69.2812 61.3437 69.0755 61.237 68.8203 61.0755C68.5703 60.9141 68.388 60.8177 68.2734 60.7865C68.1641 60.75 68.0365 60.7318 67.8906 60.7318C67.6771 60.7318 67.4948 60.8151 67.3438 60.9818C67.1927 61.1432 67.1172 61.3516 67.1172 61.6068L66.1484 61.5521C66.1484 60.9948 66.3047 60.5338 66.6172 60.1693C66.9349 59.8047 67.3359 59.6224 67.8203 59.6224C68.0026 59.6224 68.1667 59.6484 68.3125 59.7005C68.4583 59.7526 68.6562 59.8542 68.9062 60.0052C69.1562 60.1562 69.3464 60.2552 69.4766 60.3021C69.612 60.349 69.7604 60.3724 69.9219 60.3724C70.1458 60.3724 70.3307 60.2838 70.4766 60.1068C70.6276 59.9297 70.7031 59.724 70.7031 59.4896L71.6719 59.5833ZM78.1328 71.4896C76.987 71.4896 76.0547 71.1146 75.3359 70.3646C74.6172 69.6094 74.2578 68.6016 74.2578 67.3411V67.0755C74.2578 66.237 74.4167 65.4896 74.7344 64.8333C75.0573 64.1719 75.5052 63.6562 76.0781 63.2865C76.6562 62.9115 77.2812 62.724 77.9531 62.724C79.0521 62.724 79.9062 63.0859 80.5156 63.8099C81.125 64.5338 81.4297 65.5703 81.4297 66.9193V67.5208H75.7031C75.724 68.3542 75.9661 69.0286 76.4297 69.5443C76.8984 70.0547 77.4922 70.3099 78.2109 70.3099C78.7214 70.3099 79.1536 70.2057 79.5078 69.9974C79.862 69.7891 80.1719 69.513 80.4375 69.1693L81.3203 69.8568C80.612 70.9453 79.5495 71.4896 78.1328 71.4896ZM77.9531 63.9115C77.3698 63.9115 76.8802 64.125 76.4844 64.5521C76.0885 64.974 75.8438 65.5677 75.75 66.3333H79.9844V66.224C79.9427 65.4896 79.7448 64.9219 79.3906 64.5208C79.0365 64.1146 78.5573 63.9115 77.9531 63.9115ZM88.0312 69.0911C88.0312 68.7005 87.8828 68.3984 87.5859 68.1849C87.2943 67.9661 86.7812 67.7786 86.0469 67.6224C85.3177 67.4661 84.737 67.2786 84.3047 67.0599C83.8776 66.8411 83.5599 66.5807 83.3516 66.2786C83.1484 65.9766 83.0469 65.6172 83.0469 65.2005C83.0469 64.5078 83.3385 63.9219 83.9219 63.4427C84.5104 62.9635 85.2604 62.724 86.1719 62.724C87.1302 62.724 87.9062 62.9713 88.5 63.4661C89.099 63.9609 89.3984 64.5937 89.3984 65.3646H87.9453C87.9453 64.9687 87.776 64.6276 87.4375 64.3411C87.1042 64.0547 86.6823 63.9115 86.1719 63.9115C85.6458 63.9115 85.2344 64.026 84.9375 64.2552C84.6406 64.4844 84.4922 64.7838 84.4922 65.1536C84.4922 65.5026 84.6302 65.7656 84.9062 65.9427C85.1823 66.1198 85.6797 66.2891 86.3984 66.4505C87.1224 66.612 87.7083 66.8047 88.1562 67.0286C88.6042 67.2526 88.9349 67.5234 89.1484 67.8411C89.3672 68.1536 89.4766 68.5365 89.4766 68.9896C89.4766 69.7448 89.1745 70.3516 88.5703 70.8099C87.9661 71.263 87.1823 71.4896 86.2188 71.4896C85.5417 71.4896 84.9427 71.3698 84.4219 71.1302C83.901 70.8906 83.4922 70.5573 83.1953 70.1302C82.9036 69.6979 82.7578 69.2318 82.7578 68.7318H84.2031C84.2292 69.2161 84.4219 69.6016 84.7812 69.888C85.1458 70.1693 85.625 70.3099 86.2188 70.3099C86.7656 70.3099 87.2031 70.2005 87.5312 69.9818C87.8646 69.7578 88.0312 69.4609 88.0312 69.0911ZM103.953 69.8411C103.568 70.3932 103.029 70.8073 102.336 71.0833C101.648 71.3542 100.846 71.4896 99.9297 71.4896C99.0026 71.4896 98.1797 71.2734 97.4609 70.8411C96.7422 70.4036 96.1849 69.7838 95.7891 68.9818C95.3984 68.1797 95.1979 67.25 95.1875 66.1927V65.2005C95.1875 63.487 95.5859 62.1588 96.3828 61.2161C97.1849 60.2734 98.3099 59.8021 99.7578 59.8021C100.945 59.8021 101.901 60.1068 102.625 60.7161C103.349 61.3203 103.792 62.1797 103.953 63.2943H102.453C102.172 61.7891 101.276 61.0365 99.7656 61.0365C98.7604 61.0365 97.9974 61.3906 97.4766 62.099C96.9609 62.8021 96.7005 63.8229 96.6953 65.1615V66.0911C96.6953 67.3672 96.987 68.3828 97.5703 69.138C98.1536 69.888 98.9427 70.263 99.9375 70.263C100.5 70.263 100.992 70.2005 101.414 70.0755C101.836 69.9505 102.185 69.7396 102.461 69.4427V66.888H99.8281V65.6693H103.953V69.8411ZM109.742 71.4896C108.596 71.4896 107.664 71.1146 106.945 70.3646C106.227 69.6094 105.867 68.6016 105.867 67.3411V67.0755C105.867 66.237 106.026 65.4896 106.344 64.8333C106.667 64.1719 107.115 63.6562 107.688 63.2865C108.266 62.9115 108.891 62.724 109.562 62.724C110.661 62.724 111.516 63.0859 112.125 63.8099C112.734 64.5338 113.039 65.5703 113.039 66.9193V67.5208H107.312C107.333 68.3542 107.576 69.0286 108.039 69.5443C108.508 70.0547 109.102 70.3099 109.82 70.3099C110.331 70.3099 110.763 70.2057 111.117 69.9974C111.471 69.7891 111.781 69.513 112.047 69.1693L112.93 69.8568C112.221 70.9453 111.159 71.4896 109.742 71.4896ZM109.562 63.9115C108.979 63.9115 108.49 64.125 108.094 64.5521C107.698 64.974 107.453 65.5677 107.359 66.3333H111.594V66.224C111.552 65.4896 111.354 64.9219 111 64.5208C110.646 64.1146 110.167 63.9115 109.562 63.9115ZM118.805 64.1771C118.586 64.1406 118.349 64.1224 118.094 64.1224C117.146 64.1224 116.503 64.526 116.164 65.3333V71.3333H114.719V62.8802H116.125L116.148 63.8568C116.622 63.1016 117.294 62.724 118.164 62.724C118.445 62.724 118.659 62.7604 118.805 62.8333V64.1771ZM125.047 71.3333C124.964 71.1667 124.896 70.8698 124.844 70.4427C124.172 71.1406 123.37 71.4896 122.438 71.4896C121.604 71.4896 120.919 71.2552 120.383 70.7865C119.852 70.3125 119.586 69.7135 119.586 68.9896C119.586 68.1094 119.919 67.4271 120.586 66.9427C121.258 66.4531 122.201 66.2083 123.414 66.2083H124.82V65.5443C124.82 65.0391 124.669 64.638 124.367 64.3411C124.065 64.0391 123.62 63.888 123.031 63.888C122.516 63.888 122.083 64.0182 121.734 64.2786C121.385 64.5391 121.211 64.8542 121.211 65.224H119.758C119.758 64.8021 119.906 64.3958 120.203 64.0052C120.505 63.6094 120.911 63.2969 121.422 63.0677C121.938 62.8385 122.503 62.724 123.117 62.724C124.091 62.724 124.854 62.9687 125.406 63.4583C125.958 63.9427 126.245 64.612 126.266 65.4661V69.3568C126.266 70.1328 126.365 70.75 126.562 71.2083V71.3333H125.047ZM122.648 70.2318C123.102 70.2318 123.531 70.1146 123.938 69.8802C124.344 69.6458 124.638 69.3411 124.82 68.9661V67.2318H123.688C121.917 67.2318 121.031 67.75 121.031 68.7865C121.031 69.2396 121.182 69.5937 121.484 69.849C121.786 70.1042 122.174 70.2318 122.648 70.2318ZM130.102 71.3333H128.656V62.8802H130.102V71.3333ZM128.539 60.638C128.539 60.4036 128.609 60.2057 128.75 60.0443C128.896 59.8828 129.109 59.8021 129.391 59.8021C129.672 59.8021 129.885 59.8828 130.031 60.0443C130.177 60.2057 130.25 60.4036 130.25 60.638C130.25 60.8724 130.177 61.0677 130.031 61.224C129.885 61.3802 129.672 61.4583 129.391 61.4583C129.109 61.4583 128.896 61.3802 128.75 61.224C128.609 61.0677 128.539 60.8724 128.539 60.638ZM137.344 69.0911C137.344 68.7005 137.195 68.3984 136.898 68.1849C136.607 67.9661 136.094 67.7786 135.359 67.6224C134.63 67.4661 134.049 67.2786 133.617 67.0599C133.19 66.8411 132.872 66.5807 132.664 66.2786C132.461 65.9766 132.359 65.6172 132.359 65.2005C132.359 64.5078 132.651 63.9219 133.234 63.4427C133.823 62.9635 134.573 62.724 135.484 62.724C136.443 62.724 137.219 62.9713 137.812 63.4661C138.411 63.9609 138.711 64.5937 138.711 65.3646H137.258C137.258 64.9687 137.089 64.6276 136.75 64.3411C136.417 64.0547 135.995 63.9115 135.484 63.9115C134.958 63.9115 134.547 64.026 134.25 64.2552C133.953 64.4844 133.805 64.7838 133.805 65.1536C133.805 65.5026 133.943 65.7656 134.219 65.9427C134.495 66.1198 134.992 66.2891 135.711 66.4505C136.435 66.612 137.021 66.8047 137.469 67.0286C137.917 67.2526 138.247 67.5234 138.461 67.8411C138.68 68.1536 138.789 68.5365 138.789 68.9896C138.789 69.7448 138.487 70.3516 137.883 70.8099C137.279 71.263 136.495 71.4896 135.531 71.4896C134.854 71.4896 134.255 71.3698 133.734 71.1302C133.214 70.8906 132.805 70.5573 132.508 70.1302C132.216 69.6979 132.07 69.2318 132.07 68.7318H133.516C133.542 69.2161 133.734 69.6016 134.094 69.888C134.458 70.1693 134.938 70.3099 135.531 70.3099C136.078 70.3099 136.516 70.2005 136.844 69.9818C137.177 69.7578 137.344 69.4609 137.344 69.0911Z" fill="#3EC5CC"/>
</svg>
