<svg width="64" height="51" viewBox="0 0 64 51" fill="none" xmlns="http://www.w3.org/2000/svg">
<path d="M50.8406 19.1103L50.0593 20.4775C49.7338 21.0634 49.2455 21.2587 48.5945 21.0634C47.4226 20.6077 46.3809 19.9892 45.4695 19.2079C44.9486 18.7522 44.851 18.2314 45.1765 17.6454L45.9578 16.2783C45.3067 15.497 44.7859 14.6181 44.3953 13.6415H42.8328C42.1166 13.6415 41.726 13.2835 41.6609 12.5673C41.4005 11.3954 41.4005 10.191 41.6609 8.95404C41.726 8.303 42.1166 7.97748 42.8328 7.97748H44.3953C44.7859 7.00092 45.3067 6.12201 45.9578 5.34076L45.1765 3.87592C44.851 3.28998 44.9486 2.8017 45.4695 2.41107C46.3809 1.62982 47.4226 1.01133 48.5945 0.555603C49.2455 0.295186 49.7338 0.457947 50.0593 1.04388L50.8406 2.50873C51.8822 2.31342 52.9239 2.31342 53.9656 2.50873L54.7468 1.04388C55.0723 0.457947 55.5606 0.295186 56.2117 0.555603C57.3835 0.946228 58.4252 1.56472 59.3367 2.41107C59.8575 2.8017 59.9552 3.28998 59.6296 3.87592L58.8484 5.34076C59.4994 6.12201 60.0203 7.00092 60.4109 7.97748H61.9734C62.6895 7.97748 63.0802 8.303 63.1453 8.95404C63.4057 10.191 63.4057 11.3954 63.1453 12.5673C63.0802 13.2835 62.6895 13.6415 61.9734 13.6415H60.4109C60.0203 14.6181 59.4994 15.497 58.8484 16.2783L59.6296 17.6454C59.9552 18.2965 59.8575 18.8173 59.3367 19.2079C58.4252 19.9892 57.3835 20.6077 56.2117 21.0634C55.5606 21.2587 55.0723 21.0634 54.7468 20.4775L53.9656 19.1103C52.9239 19.3056 51.8822 19.3056 50.8406 19.1103ZM49.864 13.3486C51.0359 14.26 52.2403 14.5204 53.4773 14.1298C54.7143 13.7392 55.463 12.9905 55.7234 11.8837C56.0489 10.7119 55.7885 9.47487 54.9421 8.17279C53.7703 7.26133 52.5658 7.00092 51.3289 7.39154C50.0919 7.78217 49.3106 8.56342 48.9851 9.73529C48.7247 10.8421 49.0177 12.0465 49.864 13.3486ZM38.5359 28.3876L41.8562 30.0478C42.963 30.6988 43.2885 31.6428 42.8328 32.8798C42.2468 34.5725 40.8796 36.721 38.7312 39.3251C37.8848 40.3017 36.9083 40.4645 35.8015 39.8134L32.8718 38.1533C31.3093 39.5204 29.5515 40.5621 27.5984 41.2783V44.5986C27.5984 45.1194 27.4031 45.6077 27.0125 46.0634C26.6218 46.5191 26.1661 46.7796 25.6453 46.8447C23.1713 47.3004 20.6973 47.3004 18.2234 46.8447C17.6375 46.7796 17.1492 46.5191 16.7585 46.0634C16.433 45.6077 16.2703 45.1194 16.2703 44.5986V41.2783C14.252 40.5621 12.4617 39.5204 10.8992 38.1533L8.06714 39.8134C6.96037 40.4645 5.98381 40.3017 5.13745 39.3251C3.05412 36.7861 1.68693 34.6376 1.03589 32.8798C0.58016 31.6428 0.90568 30.6988 2.01245 30.0478L5.23511 28.3876C4.84448 26.3043 4.84448 24.2535 5.23511 22.2353L2.01245 20.5751C0.840576 19.9241 0.515055 18.9801 1.03589 17.7431C1.68693 15.9853 3.05412 13.8369 5.13745 11.2978C5.9187 10.3212 6.89526 10.1585 8.06714 10.8095L10.8992 12.372C12.5268 11.0048 14.3171 9.99571 16.2703 9.34467V6.02435C16.2703 5.43842 16.433 4.95013 16.7585 4.55951C17.1492 4.10378 17.6375 3.84336 18.2234 3.77826C20.6973 3.32253 23.1713 3.32253 25.6453 3.77826C25.9057 3.77826 26.1335 3.87592 26.3289 4.07123C26.5893 4.20144 26.8171 4.3642 27.0125 4.55951C27.2078 4.75482 27.338 4.98269 27.4031 5.2431C27.5333 5.50352 27.5984 5.76394 27.5984 6.02435V9.34467C29.5515 10.0608 31.3093 11.0699 32.8718 12.372L35.8015 10.8095C36.9083 10.0934 37.8848 10.2561 38.7312 11.2978C40.8145 13.7717 42.1817 15.9202 42.8328 17.7431C43.2885 18.9801 42.963 19.9241 41.8562 20.5751L38.5359 22.2353C38.9265 24.2535 38.9265 26.3043 38.5359 28.3876ZM27.1101 30.4384C28.2169 29.0061 28.8354 27.5087 28.9656 25.9462C29.0958 24.3837 28.8028 23.0491 28.0867 21.9423C27.3705 20.7704 26.4265 19.8264 25.2546 19.1103C24.1479 18.3941 22.8132 18.1337 21.2507 18.329C19.6882 18.4592 18.1908 19.0777 16.7585 20.1845C15.6518 21.6168 15.0333 23.1142 14.9031 24.6767C14.7729 26.2392 15.0658 27.6064 15.782 28.7783C16.4981 29.885 17.4096 30.7965 18.5164 31.5126C19.6882 32.2288 21.0554 32.5217 22.6179 32.3915C24.1804 32.1962 25.6778 31.5452 27.1101 30.4384ZM50.8406 48.3095L50.0593 49.6767C49.7338 50.2626 49.2455 50.4579 48.5945 50.2626C47.4226 49.8069 46.3809 49.1884 45.4695 48.4072C44.9486 47.9514 44.851 47.4306 45.1765 46.8447L45.9578 45.4775C45.3067 44.6962 44.7859 43.8173 44.3953 42.8408H42.8328C42.1166 42.8408 41.726 42.4827 41.6609 41.7665C41.4005 40.5947 41.4005 39.3902 41.6609 38.1533C41.726 37.5022 42.1166 37.1767 42.8328 37.1767H44.3953C44.7859 36.2001 45.3067 35.2887 45.9578 34.4423L45.1765 33.0751C44.851 32.4892 44.9486 31.9684 45.4695 31.5126C46.3809 30.7314 47.4226 30.1454 48.5945 29.7548C49.2455 29.4944 49.7338 29.6572 50.0593 30.2431L50.8406 31.7079C51.8822 31.5126 52.9239 31.5126 53.9656 31.7079L54.7468 30.2431C55.0723 29.6572 55.5606 29.4944 56.2117 29.7548C57.3835 30.1454 58.4252 30.7314 59.3367 31.5126C59.8575 31.9684 59.9552 32.4892 59.6296 33.0751L58.8484 34.4423C59.4994 35.2887 60.0203 36.2001 60.4109 37.1767H61.9734C62.6895 37.1767 63.0802 37.5022 63.1453 38.1533C63.4057 39.3902 63.4057 40.5947 63.1453 41.7665C63.0802 42.4827 62.6895 42.8408 61.9734 42.8408H60.4109C60.0203 43.8173 59.4994 44.6962 58.8484 45.4775L59.6296 46.8447C59.9552 47.4306 59.8575 47.9514 59.3367 48.4072C58.4252 49.1884 57.3835 49.8069 56.2117 50.2626C55.5606 50.4579 55.0723 50.2626 54.7468 49.6767L53.9656 48.3095C52.9239 48.5048 51.8822 48.5048 50.8406 48.3095ZM49.864 42.5478C51.0359 43.4592 52.2403 43.7197 53.4773 43.329C54.7143 42.9384 55.463 42.1897 55.7234 41.0829C56.0489 39.9111 55.7885 38.6741 54.9421 37.372C53.7703 36.4606 52.5658 36.2001 51.3289 36.5908C50.0919 36.9814 49.3106 37.7626 48.9851 38.9345C48.7247 40.0413 49.0177 41.2457 49.864 42.5478Z" />
</svg>
