<svg width="13" height="15" viewBox="0 0 13 15" fill="none" xmlns="http://www.w3.org/2000/svg">
<path d="M10.9375 6.875C11.3021 6.875 11.612 7.0026 11.8672 7.25781C12.1224 7.51302 12.25 7.82292 12.25 8.1875V13.4375C12.25 13.8021 12.1224 14.112 11.8672 14.3672C11.612 14.6224 11.3021 14.75 10.9375 14.75H1.3125C0.947917 14.75 0.638021 14.6224 0.382812 14.3672C0.127604 14.112 0 13.8021 0 13.4375V8.1875C0 7.82292 0.127604 7.51302 0.382812 7.25781C0.638021 7.0026 0.947917 6.875 1.3125 6.875H1.96875V4.90625C1.96875 3.75781 2.36979 2.78255 3.17188 1.98047C3.99219 1.16016 4.97656 0.75 6.125 0.75C7.27344 0.75 8.2487 1.16016 9.05078 1.98047C9.87109 2.78255 10.2812 3.75781 10.2812 4.90625V6.875H10.9375ZM8.09375 6.875V4.90625C8.09375 4.35938 7.90234 3.89453 7.51953 3.51172C7.13672 3.12891 6.67188 2.9375 6.125 2.9375C5.57812 2.9375 5.11328 3.12891 4.73047 3.51172C4.34766 3.89453 4.15625 4.35938 4.15625 4.90625V6.875H8.09375Z" fill="#568FA6"/>
</svg>
