<svg width="20" height="21" viewBox="0 0 20 21" fill="none" xmlns="http://www.w3.org/2000/svg">
<path d="M19.7266 17.8047C19.9089 17.987 20 18.2083 20 18.4688C20 18.7292 19.9089 18.9505 19.7266 19.1328L18.6328 20.2266C18.4505 20.4089 18.2292 20.5 17.9688 20.5C17.7083 20.5 17.487 20.4089 17.3047 20.2266L13.3984 16.3203C13.2161 16.138 13.125 15.9167 13.125 15.6562V15.0312C11.6667 16.1771 10 16.75 8.125 16.75C5.88542 16.75 3.97135 15.9557 2.38281 14.3672C0.794271 12.7786 0 10.8646 0 8.625C0 6.38542 0.794271 4.47135 2.38281 2.88281C3.97135 1.29427 5.88542 0.5 8.125 0.5C10.3646 0.5 12.2786 1.29427 13.8672 2.88281C15.4557 4.47135 16.25 6.38542 16.25 8.625C16.25 10.5 15.6771 12.1667 14.5312 13.625H15.1562C15.4167 13.625 15.638 13.7161 15.8203 13.8984L19.7266 17.8047ZM4.57031 12.1797C5.5599 13.1432 6.74479 13.625 8.125 13.625C9.50521 13.625 10.6771 13.1432 11.6406 12.1797C12.6302 11.1901 13.125 10.0052 13.125 8.625C13.125 7.24479 12.6302 6.07292 11.6406 5.10938C10.6771 4.11979 9.50521 3.625 8.125 3.625C6.74479 3.625 5.5599 4.11979 4.57031 5.10938C3.60677 6.07292 3.125 7.24479 3.125 8.625C3.125 10.0052 3.60677 11.1901 4.57031 12.1797Z" fill="white"/>
</svg>
