<svg width="64" height="51" viewBox="0 0 64 51" fill="none" xmlns="http://www.w3.org/2000/svg">
<path d="M5.69226 37.0967L0.907104 18.9327C0.776896 18.6723 0.744344 18.4118 0.809448 18.1514C0.939657 17.891 1.10242 17.6631 1.29773 17.4678C1.49304 17.2725 1.72091 17.1098 1.98132 16.9796L9.50085 15.0264L11.9423 24.0108L17.9969 22.4483L15.5555 13.3663L23.0751 11.3155C23.2704 11.3155 23.4657 11.348 23.661 11.4131C23.9214 11.4131 24.1167 11.4783 24.2469 11.6085C24.4423 11.6736 24.605 11.8038 24.7352 11.9991C24.8654 12.1293 24.9631 12.2921 25.0282 12.4874L29.911 30.5538C29.9761 31.0095 29.911 31.4327 29.7157 31.8233C29.5204 32.1488 29.1949 32.3767 28.7391 32.5069L7.64539 38.171C7.18966 38.3012 6.76648 38.2686 6.37585 38.0733C6.05033 37.8129 5.82247 37.4874 5.69226 37.0967ZM38.3094 0.377991H63.3094V39.4405C63.3094 42.4353 62.2352 45.0069 60.0868 47.1553C57.9384 49.3038 55.3667 50.378 52.3719 50.378C49.4423 50.378 46.9032 49.3363 44.7548 47.253C42.6714 45.2348 41.5647 42.7608 41.4344 39.8311L3.05554 50.378C2.53471 50.5082 2.20919 50.3129 2.07898 49.7921L0.809448 45.2999C0.67924 44.779 0.874552 44.4535 1.39539 44.3233L35.1844 35.1436V3.50299C35.1844 2.65664 35.4774 1.94049 36.0634 1.35455C36.7144 0.703512 37.4631 0.377991 38.3094 0.377991ZM49.0516 42.7608C49.9631 43.6723 51.0699 44.128 52.3719 44.128C53.674 44.128 54.7808 43.6723 55.6923 42.7608C56.6037 41.8493 57.0594 40.7426 57.0594 39.4405C57.0594 38.1384 56.6037 37.0316 55.6923 36.1202C54.7808 35.2087 53.674 34.753 52.3719 34.753C51.0699 34.753 49.9631 35.2087 49.0516 36.1202C48.1402 37.0316 47.6844 38.1384 47.6844 39.4405C47.6844 40.7426 48.1402 41.8493 49.0516 42.7608Z" />
</svg>
