<svg width="14" height="15" viewBox="0 0 14 15" fill="none" xmlns="http://www.w3.org/2000/svg">
<path d="M1.96875 2.96484C3.29948 1.63411 4.90365 0.96875 6.78125 0.96875C8.65885 0.96875 10.2539 1.63411 11.5664 2.96484C12.8971 4.27734 13.5625 5.8724 13.5625 7.75C13.5625 9.6276 12.8971 11.2318 11.5664 12.5625C10.2539 13.875 8.65885 14.5312 6.78125 14.5312C4.90365 14.5312 3.29948 13.875 1.96875 12.5625C0.65625 11.2318 0 9.6276 0 7.75C0 5.8724 0.65625 4.27734 1.96875 2.96484ZM8.47656 4.30469C8.0026 3.83073 7.4375 3.59375 6.78125 3.59375C6.125 3.59375 5.5599 3.83073 5.08594 4.30469C4.61198 4.77865 4.375 5.34375 4.375 6C4.375 6.65625 4.61198 7.22135 5.08594 7.69531C5.5599 8.16927 6.125 8.40625 6.78125 8.40625C7.4375 8.40625 8.0026 8.16927 8.47656 7.69531C8.95052 7.22135 9.1875 6.65625 9.1875 6C9.1875 5.34375 8.95052 4.77865 8.47656 4.30469ZM2.78906 11.1406C3.82812 12.3802 5.15885 13 6.78125 13C8.40365 13 9.73438 12.3802 10.7734 11.1406C10.5182 10.6484 10.1536 10.2565 9.67969 9.96484C9.20573 9.65495 8.67708 9.5 8.09375 9.5C8.03906 9.5 7.97526 9.50911 7.90234 9.52734C7.51953 9.65495 7.14583 9.71875 6.78125 9.71875C6.41667 9.71875 6.04297 9.65495 5.66016 9.52734C5.58724 9.50911 5.52344 9.5 5.46875 9.5C4.88542 9.5 4.35677 9.65495 3.88281 9.96484C3.40885 10.2565 3.04427 10.6484 2.78906 11.1406Z" fill="#568FA6"/>
</svg>
